<?xml version="1.0" standalone="no"?>
<!DOCTYPE svg PUBLIC "-//W3C//DTD SVG 20010904//EN"
 "http://www.w3.org/TR/2001/REC-SVG-20010904/DTD/svg10.dtd">
<svg version="1.0" xmlns="http://www.w3.org/2000/svg"
 width="260.000000pt" height="260.000000pt" viewBox="0 0 260.000000 260.000000"
 preserveAspectRatio="xMidYMid meet">
<metadata>
Created by potrace 1.14, written by Peter Selinger 2001-2017
</metadata>
<g transform="translate(0.000000,260.000000) scale(0.100000,-0.100000)"
fill="#000000" stroke="none">
<path d="M140 1300 l0 -1300 1160 0 1160 0 1 138 c2 389 -1 934 -6 987 -24
272 -90 476 -206 632 -187 252 -502 386 -869 370 -69 -3 -134 -7 -145 -10
-174 -42 -275 -88 -386 -173 -162 -126 -272 -279 -333 -466 -33 -103 -40 -154
-39 -298 0 -94 6 -145 22 -205 86 -323 338 -566 656 -634 17 -3 89 -6 160 -5
113 1 141 4 210 27 295 98 502 366 511 662 3 122 -15 196 -77 317 -110 211
-314 330 -555 323 -108 -3 -148 -12 -229 -50 -262 -124 -358 -471 -191 -690
109 -143 310 -202 456 -134 121 56 191 153 224 311 l6 28 -105 0 -104 0 -26
-54 c-41 -86 -117 -120 -195 -89 -148 61 -171 261 -45 388 59 59 125 80 240
78 216 -4 387 -185 386 -408 0 -81 -2 -90 -30 -166 -79 -208 -285 -343 -511
-334 -224 8 -423 143 -533 361 -123 243 -61 582 145 794 179 183 408 251 696
205 384 -62 588 -287 645 -715 8 -61 14 -253 16 -532 l3 -437 -24 -5 c-12 -3
-440 -4 -949 -4 l-926 1 0 1086 c0 597 3 1088 7 1091 5 3 481 5 1059 4 l1051
0 0 103 0 103 -1165 0 -1165 0 0 -1300z"/>
</g>
</svg>
