<?xml version="1.0" encoding="UTF-8" standalone="no"?>
<svg
   xmlns:dc="http://purl.org/dc/elements/1.1/"
   xmlns:cc="http://creativecommons.org/ns#"
   xmlns:rdf="http://www.w3.org/1999/02/22-rdf-syntax-ns#"
   xmlns:svg="http://www.w3.org/2000/svg"
   xmlns="http://www.w3.org/2000/svg"
   xmlns:sodipodi="http://sodipodi.sourceforge.net/DTD/sodipodi-0.dtd"
   xmlns:inkscape="http://www.inkscape.org/namespaces/inkscape"
   width="483.05026"
   height="362.26605"
   enable-background="new 0 0 780 500"
   version="1.1"
   viewBox="0 0 483.05026 362.26605"
   xml:space="preserve"
   id="svg1163"
   sodipodi:docname="jcb.svg"
   inkscape:version="0.92.5 (2060ec1f9f, 2020-04-08)"><metadata
     id="metadata1169"><rdf:RDF><cc:Work
         rdf:about=""><dc:format>image/svg+xml</dc:format><dc:type
           rdf:resource="http://purl.org/dc/dcmitype/StillImage" /><dc:title></dc:title></cc:Work></rdf:RDF></metadata><defs
     id="defs1167" /><sodipodi:namedview
     pagecolor="#ffffff"
     bordercolor="#666666"
     borderopacity="1"
     objecttolerance="10"
     gridtolerance="10"
     guidetolerance="10"
     inkscape:pageopacity="0"
     inkscape:pageshadow="2"
     inkscape:window-width="3248"
     inkscape:window-height="1798"
     id="namedview1165"
     showgrid="false"
     inkscape:zoom="0.472"
     inkscape:cx="-528.60385"
     inkscape:cy="181.125"
     inkscape:window-x="176"
     inkscape:window-y="54"
     inkscape:window-maximized="1"
     inkscape:current-layer="svg1163" /><path
     d="m 21.743267,217.04106 c -7.062,-2.094 -21.59199959,-8.773 -21.59199959,-8.773 l -0.147,-155.950005 c 0,0 -0.772,-17.423 18.45099959,-35.442 19.222,-18.0199995 40.171,-16.86099955 40.171,-16.86099955 h 90.418003 l -0.209,299.81000455 c 0,0 1.372,22.314 -15.166,40.623 -18.427,21.185 -44.620003,20.086 -44.620003,20.086 H 0.18026741 v -126.41 l 33.06999959,5.812 c 0,0 12.737,1.271 25.375,1.531 11.078,0.227 21.363,-0.744 28.187,-1.802 13.056,-2.025 19.799003,-3.797 32.157003,-11.146 18.415,-13.41 17.583,-34.005 17.583,-34.005 l -0.48,-72.116 -51.476003,0.287 v 70.875 c 0,0 0.484,13.295 -10.075,21.523 -4.629,3.607 -11.372,6.899 -23.941,6.899 -8.94,0.002 -20.986,-2.615 -28.837,-4.942 z m 146.460003,-75.944 V 61.654055 c 0,0 -0.917,-23.228 16.283,-41.034 17.199,-17.8069995 39.574,-18.4989995 39.574,-18.4989995 h 93.104 V 303.41106 c 0,0 1.139,22.137 -16.966,40.476 -18.037,18.271 -37.954,18.379 -37.954,18.379 h -94.041 v -138.37 c 0,0 12.447,13.138 47.743,18.108 16.568,2.332 36.17,1.98 52.283,0 18.21,-2.239 31.969,-6.314 31.969,-6.314 l -0.375,-25.08 c 0,0 -6.533,3.984 -26.501,10.044 -19.968,6.062 -69.859,8.817 -71.246,-36.365 -1.388,-45.184 41.112,-45.584 60.168,-43.199 19.056,2.387 37.954,12.656 37.954,12.656 v -24.525 c 0,0 -24.054,-5.432 -34.308,-6.556 -12.648,-1.385 -30.476,-2.882 -57.773,1.134 -27.296,4.018 -39.914,17.291 -39.914,17.291 v 0.001 z m 166.06,97.097 v 122.2 h 93.481 c 0,0 21.457,-2.045 33.991,-14.407 20.399,-15.591 21.315,-40.561 21.315,-40.561 V 0.00605545 h -89.149 c 0,0 -23.775,-0.738 -42.098,17.73799955 -18.322,18.477 -17.541,40.001 -17.541,40.001 v 64.906005 h 90.685 c 0,0 8.332,0.138 16.561,3.387 6.513,2.57 12.873,7.217 15.606,14.375 6.155,16.08 -3.152,27.646 -7.913,30.792 -6.269,5.442 -17.483,7.097 -17.483,7.097 0,0 16.229,1.643 25.396,9.972 3.029,2.698 6.517,7.212 7.923,11.733 1.854,5.959 1.117,11.765 1.117,11.765 0,0 -1.117,10.222 -9.672,17.141 -3.65,2.952 -8.61,5.663 -13.638,7.126 -6.759,1.967 -13.263,2.156 -13.263,2.156 h -95.318 v -0.002 z m 29.802,-96.229 v 29.373 h 32.173 c 0,0 15.076,-0.043 15.076,-14.708 0,-14.665 -15.077,-14.665 -15.077,-14.665 z m 34.412,46.624 h -34.412 v 31.56 h 34.412 c 0.099,0 16.966,0.979 16.966,-15.78 0,-16.758 -16.966,-15.78 -16.966,-15.78 z"
     id="path1161"
     inkscape:connector-curvature="0"
     style="fill:#ffffff;fill-opacity:0.5" /></svg>
