<svg width="32" height="25" viewBox="0 0 32 25" fill="none" xmlns="http://www.w3.org/2000/svg">
<path fill-rule="evenodd" clip-rule="evenodd" d="M12.2985 9.889C12.2985 6.77431 13.7705 4.01172 16.033 2.22416C14.3702 0.924115 12.2712 0.138672 9.98139 0.138672C4.55675 0.138672 0.167969 4.49924 0.167969 9.889C0.167969 15.2788 4.55675 19.6393 9.98139 19.6393C12.2712 19.6393 14.3702 18.8539 16.033 17.5538C13.7705 15.7934 12.2985 13.0037 12.2985 9.889ZM30.3993 23.2687V20.9395H29.8268V22.2937C29.636 22.0499 29.3634 21.9145 29.009 21.9145C28.273 21.9145 27.7006 22.4833 27.7006 23.2687C27.7006 24.0541 28.273 24.6229 29.009 24.6229C29.3907 24.6229 29.6633 24.4875 29.8268 24.2437V24.5687H30.3993V23.2687ZM13.4984 21.9687H14.4252V22.4833H13.4984V23.6479C13.4984 23.9188 13.6074 24.0813 13.88 24.0813C14.0163 24.0813 14.2071 24.0542 14.3707 23.9459L14.5342 24.4334C14.3434 24.5417 14.0708 24.623 13.8255 24.623C13.1712 24.623 12.9259 24.2709 12.9259 23.675V22.4833H12.408V21.9687H12.9259V21.1833H13.4984V21.9687ZM5.94805 22.9437V24.5687H5.32108V23.1333C5.32108 22.6999 5.13026 22.4562 4.74863 22.4562C4.39426 22.4562 4.12166 22.6729 4.12166 23.1333V24.5687H3.54921V23.1333C3.54921 22.6999 3.3584 22.4562 2.97676 22.4562C2.59513 22.4562 2.34979 22.6729 2.34979 23.1333V24.5687H1.77734V21.9687H2.34979V22.2937C2.56787 21.9957 2.84047 21.9145 3.11306 21.9145C3.52195 21.9145 3.79455 22.077 3.98536 22.3749C4.2307 22.0228 4.58507 21.9145 4.91219 21.9145C5.56642 21.9145 5.94805 22.3208 5.94805 22.9437ZM19.2781 21.9145C18.9509 21.9145 18.7329 22.077 18.5966 22.2937V21.9687H18.0241V24.5687H18.5966V23.1062C18.5966 22.6729 18.7874 22.4291 19.1418 22.4291C19.2508 22.4291 19.3871 22.4562 19.4961 22.4833L19.6597 21.9416C19.5507 21.9145 19.3871 21.9145 19.2781 21.9145ZM10.8816 21.9145C11.2905 21.9145 11.6721 21.9957 11.9447 22.1853L11.6994 22.6458C11.5359 22.5645 11.2087 22.4291 10.8816 22.4291C10.5818 22.4291 10.391 22.5374 10.391 22.727C10.391 22.8895 10.5818 22.9437 10.8271 22.9708L11.0997 22.9979C11.6449 23.0791 11.9993 23.3229 11.9993 23.7833C11.9993 24.2708 11.5631 24.6229 10.7998 24.6229C10.391 24.6229 9.98206 24.5146 9.6822 24.2979L9.9548 23.8646C10.1456 24 10.4455 24.1354 10.8271 24.1354C11.2087 24.1354 11.4268 24 11.4268 23.8104C11.4268 23.675 11.2633 23.5937 10.9634 23.5395L10.6908 23.5125C10.1184 23.4312 9.79124 23.1875 9.79124 22.7541C9.79124 22.2395 10.2274 21.9145 10.8816 21.9145ZM27.1562 21.9145C26.8291 21.9145 26.611 22.077 26.4747 22.2937V21.9687H25.9023V24.5687H26.4747V23.1062C26.4747 22.6729 26.6656 22.4291 27.0199 22.4291C27.129 22.4291 27.2653 22.4562 27.3743 22.4833L27.5379 21.9416C27.4288 21.9145 27.2653 21.9145 27.1562 21.9145ZM21.2404 24.6229C20.3954 24.6229 19.8502 24.0541 19.8502 23.2687C19.8502 22.4833 20.3954 21.9145 21.2404 21.9145C21.6221 21.9145 21.8947 21.9957 22.1673 22.2124L21.8947 22.6729C21.6766 22.5103 21.4585 22.4291 21.2132 22.4291C20.7498 22.4562 20.4227 22.7812 20.4227 23.2687C20.4227 23.7833 20.7498 24.1083 21.2132 24.1083C21.4585 24.1083 21.6766 24.0271 21.8947 23.8646L22.1673 24.325C21.8947 24.5417 21.6221 24.6229 21.2404 24.6229ZM25.139 23.2687V21.9687H24.5665V22.2937C24.3757 22.0499 24.1031 21.9145 23.7488 21.9145C23.0128 21.9145 22.4403 22.4833 22.4403 23.2687C22.4403 24.0541 23.0128 24.6229 23.7488 24.6229C24.1304 24.6229 24.403 24.4875 24.5665 24.2437V24.5687H25.139V23.2687ZM23.8303 22.4291C23.3396 22.4291 23.0397 22.8083 23.0397 23.2687C23.0397 23.7292 23.3396 24.0813 23.8303 24.1083C24.2937 24.1083 24.6208 23.7292 24.6208 23.2687C24.6208 22.7812 24.2937 22.4291 23.8303 22.4291ZM16.1975 21.9145C15.4343 21.9145 14.8891 22.4562 14.8891 23.2687C14.8891 24.0812 15.4343 24.6229 16.2248 24.6229C16.6064 24.6229 16.9881 24.5146 17.2879 24.2708L17.0153 23.8646C16.7973 24.0271 16.5247 24.1354 16.2521 24.1354C15.8977 24.1354 15.5433 23.9729 15.4615 23.5125H17.397V23.2958C17.4242 22.4562 16.9336 21.9145 16.1975 21.9145ZM16.8515 23.0248C16.797 22.6185 16.5516 22.4019 16.1973 22.4019C15.7884 22.4019 15.543 22.6727 15.4885 23.0248H16.8515ZM29.0916 22.4291C28.601 22.4291 28.3011 22.8083 28.3011 23.2687C28.3011 23.7292 28.601 24.0813 29.0916 24.1083C29.555 24.1083 29.8822 23.7292 29.8822 23.2687C29.8822 22.7812 29.555 22.4291 29.0916 22.4291ZM9.16468 23.2687V21.9687H8.59223V22.2937C8.40141 22.0499 8.12882 21.9145 7.77445 21.9145C7.03844 21.9145 6.46599 22.4833 6.46599 23.2687C6.46599 24.0541 7.03844 24.6229 7.77445 24.6229C8.15608 24.6229 8.42867 24.4875 8.59223 24.2437V24.5687H9.16468V23.2687ZM7.82925 22.4291C7.33858 22.4291 7.03872 22.8083 7.03872 23.2687C7.03872 23.7292 7.33858 24.0813 7.82925 24.1083C8.29266 24.1083 8.61978 23.7292 8.61978 23.2687C8.61978 22.7812 8.29266 22.4291 7.82925 22.4291ZM22.1141 19.6398C27.5388 19.6398 31.9275 15.2793 31.9275 9.88949C31.9275 4.52681 27.5388 0.13916 22.1141 0.13916C19.8243 0.13916 17.7253 0.924603 16.0625 2.22465C18.325 4.01221 19.7971 6.7748 19.7971 9.88949C19.7971 13.0042 18.3523 15.7668 16.0625 17.5543C17.7253 18.8544 19.8243 19.6398 22.1141 19.6398Z" fill="#809DA0"/>
</svg>
