<svg width="201" height="189" viewBox="0 0 201 189" fill="none" xmlns="http://www.w3.org/2000/svg">
  <path d="M190.919 138.109L190.918 138.11C178.79 158.386 152.47 168.621 127.569 162.407C108.728 157.704 95.889 165.497 82.3089 175.81L82.9137 176.606L82.3088 175.81C57.8835 194.362 33.1345 187.499 16.8275 177.492C7.51474 171.768 2.28195 163.315 1.24095 152.529C0.194959 141.692 3.37805 128.429 11.0935 113.178L11.0937 113.178C19.3579 96.8208 19.5639 84.2313 18.1778 72.3825C17.8354 69.4559 17.4011 66.5946 16.9687 63.745C15.6464 55.0327 14.3408 46.4303 15.7295 36.4085L15.7295 36.4083C17.2903 25.1267 23.5729 17.138 30.6869 11.7473C37.8186 6.34328 45.7329 3.59467 50.3838 2.80674C58.4939 1.43481 67.602 1.03257 76.3532 3.60373C85.0763 6.16662 93.5058 11.7005 100.27 22.3188C113.425 42.9994 133.47 54.5067 154.274 59.023C168.296 62.0721 178.307 67.2869 185.27 73.6585C192.228 80.0261 196.187 87.5909 198.042 95.4226C201.762 111.13 197.017 127.93 190.919 138.109Z" stroke="#EBEBEB" stroke-width="2"/>
</svg>
