<svg width="19" height="15" viewBox="0 0 19 15" fill="none" xmlns="http://www.w3.org/2000/svg">
  <path d="M16.5894 1.84363L16.5893 1.84372L16.5992 1.85316L16.6035 1.85733L16.63 1.90821L16.7097 1.98877C18.1712 3.46563 18.0773 5.80388 16.5249 7.19491L16.5124 7.20615L16.5003 7.21794L9.50819 14.0734L2.485 7.1881L2.47298 7.17632L2.46045 7.16508C1.68684 6.47192 1.25 5.48197 1.25 4.47316C1.25 2.44077 2.96629 0.75 5.15942 0.75H5.19048C5.94538 0.75 6.71706 1.03089 7.41572 1.41957C8.10809 1.80475 8.6767 2.2665 9.01383 2.56201L9.51985 3.00556L10.0155 2.55043C10.3421 2.25046 10.9073 1.7907 11.5982 1.40976C12.2944 1.02589 13.0675 0.75 13.8259 0.75H13.857C14.9106 0.75 15.8979 1.15512 16.5894 1.84363Z" stroke="#555555" stroke-width="1.5"/>
</svg>
