<svg width="17" height="15" viewBox="0 0 17 15" fill="none" xmlns="http://www.w3.org/2000/svg">
  <path d="M15.1693 2.40088L15.1692 2.40097L15.1775 2.40878L15.2022 2.45572L15.2827 2.5361C16.6409 3.89252 16.5553 6.03696 15.1101 7.31668L15.0975 7.32784L15.0854 7.33955L8.50773 13.7128L1.90071 7.31169L1.88863 7.29999L1.87605 7.28884C1.15496 6.65034 0.75 5.74068 0.75 4.81655C0.75 2.95733 2.34211 1.3916 4.40056 1.3916H4.4299C5.13512 1.3916 5.85794 1.65106 6.51455 2.01205C7.16501 2.36966 7.69953 2.79857 8.01669 3.0733L8.51932 3.5087L9.01176 3.06181C9.3184 2.78354 9.84949 2.3566 10.4985 2.00296C11.1526 1.64651 11.8769 1.3916 12.5856 1.3916H12.6149C13.6023 1.3916 14.525 1.76691 15.1693 2.40088Z" stroke="#F77211" stroke-width="1.5"/>
</svg>
