<svg width="18" height="21" viewBox="0 0 18 21" fill="none" xmlns="http://www.w3.org/2000/svg">
  <path d="M17.8593 20.9941C11.8883 20.9941 5.95565 20.9941 0 20.9941C0 14.3198 0 7.66851 0 0.994141C5.98635 0.994141 11.965 0.994141 17.959 0.994141C17.959 1.51762 17.959 2.0257 17.959 2.57998C12.5253 2.57998 7.09919 2.57998 1.64241 2.57998C1.64241 8.19968 1.64241 13.7655 1.64241 19.3544C6.50056 19.3544 11.3434 19.3544 16.2476 19.3544C16.2476 19.1697 16.2476 18.9772 16.2476 18.7924C16.2399 16.7293 16.2783 14.6585 16.2092 12.5954C16.1862 11.7717 16.0096 10.9326 15.7717 10.1473C15.0963 7.96104 13.546 6.74472 11.328 6.35981C10.2075 6.16735 9.08697 6.13656 7.98947 6.50607C4.74303 7.59152 3.17737 11.5638 4.8735 14.4122C6.04775 16.3752 8.32716 17.299 10.2996 16.5985C12.249 15.9056 13.3849 13.8656 12.8476 12.018C12.3795 10.4014 10.645 9.4391 9.02557 9.90099C7.9818 10.2012 7.33711 11.1943 7.52131 12.2259C7.65178 12.9649 8.21972 13.473 8.94115 13.5038C9.47838 13.5269 9.91585 13.1112 10.1154 12.3875C10.1231 12.3644 10.1384 12.3413 10.1691 12.2874C10.668 12.2874 11.1899 12.2874 11.7425 12.2874C11.7425 12.3644 11.7501 12.4491 11.7425 12.5261C11.5583 13.9041 10.4838 15.028 9.25581 15.1281C7.80528 15.2436 6.46986 14.3506 6.02472 12.9803C5.31864 10.7786 6.8843 8.43063 9.21744 8.19968C11.1975 8.00723 12.8169 8.68467 13.876 10.3937C14.9735 12.1643 14.8584 13.9965 13.7993 15.7439C11.965 18.7771 7.92807 19.3698 5.06537 17.0757C1.91103 14.5507 1.69613 9.76242 4.61256 6.77551C6.20892 5.14349 8.16599 4.47374 10.4224 4.61231C11.6887 4.69699 12.9013 4.95103 14.0295 5.55919C16.0557 6.65234 17.1532 8.42293 17.606 10.6246C17.7825 11.4868 17.8746 12.3798 17.89 13.2574C17.9207 15.7363 17.8976 18.2074 17.89 20.6862C17.8823 20.7786 17.8669 20.871 17.8593 20.9941Z" fill="#202020"/>
</svg>
