<svg width="26" height="22" viewBox="0 0 26 22" fill="none" xmlns="http://www.w3.org/2000/svg">
<path d="M23.2937 2.62772L23.3001 2.63418L23.3066 2.64053L23.3241 2.65767L23.363 2.73336L23.4679 2.84108C25.6215 5.05084 25.4804 8.55466 23.197 10.6321L23.1804 10.6472L23.1645 10.6631L13.0118 20.7704L2.81431 10.6193L2.79839 10.6035L2.78178 10.5884C1.64538 9.55445 1 8.0741 1 6.56064C1 3.50661 3.53425 1 6.73027 1H6.77513C7.88158 1 9.0085 1.41771 10.0242 1.99146C11.0312 2.56031 11.8576 3.24179 12.347 3.6774L13.0275 4.28307L13.6938 3.66181C14.1694 3.21838 14.9912 2.5396 15.9962 1.97692C17.0085 1.41015 18.1374 1 19.2486 1H19.2934C20.8315 1 22.2773 1.60025 23.2937 2.62772Z" stroke="#013B42" stroke-width="2"/>
</svg>
