<svg width="132" height="37" viewBox="0 0 132 37" fill="none" xmlns="http://www.w3.org/2000/svg">
<path d="M131.973 36.827C130.722 36.758 129.47 36.689 128.246 36.6338C128.026 32.4945 127.847 28.1896 127.572 23.8847C127.297 19.6074 126.746 15.3577 125.907 11.0114C125.783 11.2184 125.715 11.3012 125.673 11.3978C121.863 19.3177 118.231 27.3203 115.412 35.6818C115.329 35.9163 115.288 36.1785 115.178 36.3992C115.081 36.5648 114.903 36.689 114.765 36.827C114.627 36.689 114.421 36.5786 114.366 36.3992C113.389 33.7087 112.564 30.9491 111.436 28.3138C109.07 22.7395 106.567 17.2204 104.118 11.6737C104.049 11.5082 103.953 11.3564 103.774 11.039C102.784 19.704 101.986 28.2034 101.67 36.7304C101.119 36.689 100.597 36.6338 100.074 36.6338C99.5512 36.6338 99.0285 36.689 98.5195 36.7166C98.5195 36.758 102.866 0.67694 102.866 0.663142C103.403 0.428581 103.609 0.718333 103.802 1.18746C107.557 10.1008 111.312 19.0003 115.068 27.8998C115.178 28.1758 115.315 28.438 115.48 28.7967C115.632 28.4931 115.755 28.2862 115.852 28.0792C119.813 19.2073 123.775 10.3491 127.737 1.47721C127.805 1.32543 127.833 1.15986 127.943 1.04948C128.094 0.883906 128.287 0.745929 128.452 0.607951C128.548 0.787322 128.7 0.966692 128.713 1.15986C128.892 3.14673 129.057 5.1474 129.236 7.13427C129.676 12.129 130.103 17.11 130.57 22.1048C130.983 26.5477 131.423 30.9767 131.863 35.4196C131.891 35.668 131.946 35.9163 132.001 36.1509C131.973 36.3716 131.973 36.6062 131.973 36.827Z" fill="#202020"/>
<path d="M32.0096 36.8408C21.3076 36.8408 10.6744 36.8408 0 36.8408C0 24.8781 0 12.9569 0 0.994293C10.7295 0.994293 21.4452 0.994293 32.1884 0.994293C32.1884 1.93254 32.1884 2.84319 32.1884 3.83662C22.4494 3.83662 12.7241 3.83662 2.94373 3.83662C2.94373 13.909 2.94373 23.8847 2.94373 33.9019C11.6511 33.9019 20.331 33.9019 29.1209 33.9019C29.1209 33.5707 29.1209 33.2258 29.1209 32.8946C29.1071 29.1968 29.1759 25.4852 29.0521 21.7875C29.0108 20.3111 28.6945 18.8072 28.268 17.3998C27.0575 13.4812 24.2789 11.3012 20.3035 10.6113C18.2951 10.2664 16.2868 10.2112 14.3197 10.8735C8.50104 12.8189 5.69487 19.9386 8.73489 25.0437C10.8395 28.5621 14.925 30.2179 18.4602 28.9623C21.9541 27.7205 23.99 24.0641 23.0271 20.7526C22.188 17.8551 19.0792 16.1304 16.1767 16.9583C14.306 17.4964 13.1505 19.2763 13.4806 21.1252C13.7145 22.4497 14.7324 23.3604 16.0254 23.4156C16.9883 23.457 17.7724 22.7119 18.1301 21.4149C18.1438 21.3735 18.1713 21.3321 18.2263 21.2355C19.1205 21.2355 20.0559 21.2355 21.0463 21.2355C21.0463 21.3735 21.06 21.5253 21.0463 21.6633C20.7161 24.1331 18.7903 26.1475 16.5894 26.3269C13.9896 26.5339 11.5961 24.9333 10.7983 22.4773C9.53272 18.5312 12.3389 14.3229 16.5206 13.909C20.0696 13.564 22.9721 14.7782 24.8704 17.8413C26.8374 21.0148 26.6311 24.2986 24.7328 27.4307C21.4452 32.867 14.2097 33.9295 9.07878 29.8177C3.42518 25.2921 3.04002 16.7099 8.2672 11.3564C11.1284 8.43126 14.6361 7.23086 18.6803 7.47922C20.95 7.631 23.1234 8.08632 25.1455 9.17634C28.777 11.1356 30.7441 14.3091 31.5557 18.2552C31.872 19.8006 32.0371 21.4011 32.0646 22.9741C32.1196 27.4169 32.0784 31.846 32.0646 36.2889C32.0509 36.4544 32.0233 36.62 32.0096 36.8408Z" fill="#202020"/>
<path d="M78.2174 28.8381C79.6343 25.7336 80.9961 22.7946 82.3029 19.8419C85.054 13.6606 87.7914 7.46538 90.5288 1.2702C90.5701 1.15982 90.5976 1.03564 90.6664 0.966655C90.8177 0.828677 90.9965 0.718296 91.1616 0.594116C91.2441 0.759689 91.3817 0.911464 91.3954 1.09083C91.533 2.55339 91.6568 4.01595 91.7806 5.49231C92.3721 12.1014 92.9498 18.7243 93.5551 25.3334C93.899 29.0864 94.2841 32.8394 94.6555 36.5786C94.6555 36.62 94.6418 36.6614 94.628 36.7165C93.39 36.7165 92.1382 36.7165 90.8314 36.7165C90.7764 28.1758 90.1987 19.6074 88.6168 11.039C88.493 11.2046 88.4242 11.2736 88.3692 11.3701C84.5588 19.2762 80.9411 27.2513 78.1349 35.5851C78.0386 35.8887 77.9698 36.206 77.8323 36.4958C77.7635 36.6338 77.5709 36.7855 77.4058 36.8131C77.3096 36.8269 77.1032 36.6476 77.062 36.5234C74.5447 27.817 70.1566 19.8695 66.7314 11.5357C66.6901 11.4391 66.6351 11.3425 66.3875 11.246C65.9748 15.4819 65.5071 19.704 65.1495 23.9537C64.7918 28.2034 64.558 32.4806 64.2691 36.7165C63.2787 36.7165 62.2333 36.7165 61.1328 36.7165C63.0311 24.7953 64.1866 12.7361 65.5071 0.704498C66.1399 0.400948 66.305 0.787284 66.4975 1.25641C70.2529 10.1559 74.0082 19.0693 77.7635 27.9688C77.901 28.1896 78.0248 28.4379 78.2174 28.8381Z" fill="#202020"/>
<path d="M55.5165 1.38063C55.5165 2.33267 55.5165 3.27092 55.5165 4.26435C51.0183 4.36094 46.5615 3.54687 41.9258 3.91941C41.8433 8.33468 41.7607 12.6672 41.6782 17.0824C42.366 17.0824 42.9575 17.0962 43.5352 17.0824C45.5986 17.0134 47.6619 17.0686 49.6703 17.6068C54.3335 18.8761 56.8645 22.2704 56.6444 27.1134C56.5894 28.3414 56.4518 29.6108 56.0942 30.7836C55.035 34.3296 52.3802 36.1095 48.9 36.6614C46.9879 36.965 45.0208 36.896 43.0813 36.9512C41.3205 36.9926 39.5598 36.965 37.7578 36.965C38.0054 25.0851 38.1567 13.2053 37.7716 1.39443C43.7003 1.38063 49.6153 1.38063 55.5165 1.38063ZM41.747 18.9175C41.747 20.8354 41.7332 22.5739 41.747 24.3124C41.7882 27.3479 41.8708 30.3834 41.8983 33.4189C41.912 34.1916 42.1459 34.6193 42.9575 34.6331C44.113 34.6607 45.296 34.8401 46.4377 34.7159C49.6015 34.3986 51.94 32.3289 52.6002 29.2106C52.8616 27.9688 52.9166 26.6443 52.8203 25.3749C52.559 21.7185 50.4406 19.4005 46.8091 18.9451C45.2409 18.752 43.604 18.9175 41.747 18.9175Z" fill="#202020"/>
</svg>
