<svg width="132" height="37" viewBox="0 0 132 37" fill="none" xmlns="http://www.w3.org/2000/svg">
  <path d="M131.973 36.827C130.722 36.758 129.47 36.689 128.246 36.6338C128.026 32.4945 127.847 28.1896 127.572 23.8847C127.297 19.6074 126.746 15.3577 125.907 11.0114C125.783 11.2184 125.715 11.3012 125.673 11.3978C121.863 19.3177 118.231 27.3203 115.412 35.6818C115.329 35.9163 115.288 36.1785 115.178 36.3992C115.081 36.5648 114.903 36.689 114.765 36.827C114.627 36.689 114.421 36.5786 114.366 36.3992C113.389 33.7087 112.564 30.9491 111.436 28.3138C109.07 22.7395 106.567 17.2204 104.118 11.6737C104.049 11.5082 103.953 11.3564 103.774 11.039C102.784 19.704 101.986 28.2034 101.67 36.7304C101.119 36.689 100.597 36.6338 100.074 36.6338C99.5512 36.6338 99.0285 36.689 98.5195 36.7166C98.5195 36.758 102.866 0.67694 102.866 0.663142C103.403 0.428581 103.609 0.718333 103.802 1.18746C107.557 10.1008 111.312 19.0003 115.068 27.8998C115.178 28.1758 115.315 28.438 115.48 28.7967C115.632 28.4931 115.755 28.2862 115.852 28.0792C119.813 19.2073 123.775 10.3491 127.737 1.47721C127.805 1.32543 127.833 1.15986 127.943 1.04948C128.094 0.883906 128.287 0.745929 128.452 0.607951C128.548 0.787322 128.7 0.966692 128.713 1.15986C128.892 3.14673 129.057 5.1474 129.236 7.13427C129.676 12.129 130.103 17.11 130.57 22.1048C130.983 26.5477 131.423 30.9767 131.863 35.4196C131.891 35.668 131.946 35.9163 132.001 36.1509C131.973 36.3716 131.973 36.6062 131.973 36.827Z" fill="white"/>
  <path d="M32.0096 36.8406C21.3076 36.8406 10.6744 36.8406 0 36.8406C0 24.878 0 12.9568 0 0.994141C10.7295 0.994141 21.4452 0.994141 32.1884 0.994141C32.1884 1.93239 32.1884 2.84304 32.1884 3.83647C22.4494 3.83647 12.7241 3.83647 2.94373 3.83647C2.94373 13.9088 2.94373 23.8846 2.94373 33.9017C11.6511 33.9017 20.331 33.9017 29.1209 33.9017C29.1209 33.5706 29.1209 33.2256 29.1209 32.8945C29.1071 29.1967 29.1759 25.4851 29.0521 21.7873C29.0108 20.3109 28.6945 18.807 28.268 17.3996C27.0575 13.4811 24.2789 11.301 20.3035 10.6112C18.2951 10.2662 16.2868 10.211 14.3197 10.8733C8.50104 12.8188 5.69487 19.9384 8.73489 25.0436C10.8395 28.562 14.925 30.2177 18.4602 28.9621C21.9541 27.7203 23.99 24.0639 23.0271 20.7525C22.188 17.855 19.0792 16.1302 16.1767 16.9581C14.306 17.4962 13.1505 19.2761 13.4806 21.125C13.7145 22.4496 14.7324 23.3602 16.0254 23.4154C16.9883 23.4568 17.7724 22.7118 18.1301 21.4148C18.1438 21.3734 18.1713 21.332 18.2263 21.2354C19.1205 21.2354 20.0559 21.2354 21.0463 21.2354C21.0463 21.3734 21.06 21.5252 21.0463 21.6631C20.7161 24.1329 18.7903 26.1474 16.5894 26.3268C13.9896 26.5337 11.5961 24.9332 10.7983 22.4772C9.53272 18.531 12.3389 14.3227 16.5206 13.9088C20.0696 13.5639 22.9721 14.7781 24.8704 17.8412C26.8374 21.0146 26.6311 24.2985 24.7328 27.4306C21.4452 32.8669 14.2097 33.9293 9.07878 29.8176C3.42518 25.2919 3.04002 16.7097 8.26719 11.3562C11.1284 8.43111 14.6361 7.23071 18.6803 7.47907C20.95 7.63084 23.1234 8.08617 25.1455 9.17619C28.777 11.1355 30.7441 14.3089 31.5557 18.2551C31.872 19.8004 32.0371 21.401 32.0646 22.9739C32.1196 27.4168 32.0784 31.8458 32.0646 36.2887C32.0509 36.4543 32.0233 36.6199 32.0096 36.8406Z" fill="white"/>
  <path d="M78.2135 28.8377C79.6304 25.7332 80.9922 22.7943 82.299 19.8416C85.0501 13.6602 87.7875 7.46502 90.5249 1.26984C90.5662 1.15946 90.5937 1.03528 90.6625 0.966288C90.8138 0.828311 90.9926 0.717929 91.1577 0.59375C91.2402 0.759323 91.3778 0.911098 91.3915 1.09047C91.5291 2.55303 91.6529 4.01558 91.7767 5.49194C92.3682 12.101 92.9459 18.724 93.5512 25.3331C93.8951 29.086 94.2802 32.839 94.6516 36.5782C94.6516 36.6196 94.6379 36.661 94.6241 36.7162C93.3861 36.7162 92.1343 36.7162 90.8275 36.7162C90.7725 28.1754 90.1948 19.607 88.6129 11.0386C88.4891 11.2042 88.4203 11.2732 88.3653 11.3698C84.5549 19.2759 80.9372 27.2509 78.131 35.5848C78.0347 35.8883 77.9659 36.2057 77.8284 36.4954C77.7596 36.6334 77.567 36.7852 77.4019 36.8128C77.3057 36.8266 77.0993 36.6472 77.058 36.523C74.5407 27.8167 70.1527 19.8692 66.7275 11.5353C66.6862 11.4388 66.6312 11.3422 66.3836 11.2456C65.9709 15.4815 65.5032 19.7036 65.1456 23.9533C64.7879 28.203 64.5541 32.4803 64.2652 36.7162C63.2748 36.7162 62.2294 36.7162 61.1289 36.7162C63.0272 24.795 64.1827 12.7357 65.5032 0.704132C66.136 0.400582 66.3011 0.786918 66.4936 1.25604C70.249 10.1556 74.0043 19.0689 77.7596 27.9684C77.8971 28.1892 78.0209 28.4376 78.2135 28.8377Z" fill="white"/>
  <path d="M55.5165 1.38086C55.5165 2.3329 55.5165 3.27115 55.5165 4.26458C51.0183 4.36117 46.5615 3.5471 41.9258 3.91964C41.8433 8.33491 41.7607 12.6674 41.6782 17.0827C42.366 17.0827 42.9575 17.0965 43.5352 17.0827C45.5986 17.0137 47.6619 17.0689 49.6703 17.607C54.3335 18.8764 56.8645 22.2706 56.6444 27.1136C56.5894 28.3416 56.4518 29.611 56.0942 30.7838C55.035 34.3298 52.3802 36.1097 48.9 36.6616C46.9879 36.9652 45.0208 36.8962 43.0813 36.9514C41.3205 36.9928 39.5598 36.9652 37.7578 36.9652C38.0054 25.0853 38.1567 13.2055 37.7716 1.39466C43.7003 1.38086 49.6153 1.38086 55.5165 1.38086ZM41.747 18.9178C41.747 20.8356 41.7332 22.5742 41.747 24.3127C41.7882 27.3482 41.8708 30.3837 41.8983 33.4192C41.912 34.1918 42.1459 34.6196 42.9575 34.6334C44.113 34.661 45.296 34.8403 46.4377 34.7162C49.6015 34.3988 51.94 32.3291 52.6002 29.2109C52.8616 27.9691 52.9166 26.6445 52.8203 25.3751C52.559 21.7187 50.4406 19.4007 46.8091 18.9454C45.2409 18.7522 43.604 18.9178 41.747 18.9178Z" fill="white"/>
</svg>
