<svg width="64" height="19" viewBox="0 0 64 19" fill="none" xmlns="http://www.w3.org/2000/svg">
<path fill-rule="evenodd" clip-rule="evenodd" d="M0.21875 0.277344V18.498H6.08061V8.7282H6.71565L9.98852 18.498H12.5775L15.8504 8.7282H16.4366V18.498H22.2984V0.277344H16.4366C16.4366 0.277344 14.7757 0.277344 13.8476 2.86633C11.7959 8.97244 11.2586 10.6822 11.2586 10.6822C11.2586 10.6822 11.0143 9.75402 8.6696 2.86633C7.79032 0.277344 6.08061 0.277344 6.08061 0.277344H0.21875ZM24.9863 0.277344V18.498H30.2132C30.2132 18.498 31.5321 18.498 32.1671 17.1791C35.6842 10.1448 36.7101 8.04431 36.7101 8.04431H37.3451V18.4491H43.207V0.277344H38.029C38.029 0.277344 36.7101 0.423889 36.075 1.59626C33.0464 7.55582 31.4832 10.6822 31.4832 10.6822H30.8482V0.277344H24.9863ZM44.7695 0.277344H56.8841C60.5477 0.277344 63.4298 3.11058 63.381 6.77424C63.381 7.16503 63.381 7.70237 63.2344 8.09316H53.6112C49.3125 8.09316 45.4046 4.3318 44.7695 0.277344ZM45.8438 18.4978V8.77688H62.9897C62.2081 11.3659 59.7657 13.3198 56.8836 13.3198H51.7056V18.4978H45.8438Z" fill="#809DA0"/>
</svg>
