<svg width="68" height="22" viewBox="0 0 68 22" fill="none" xmlns="http://www.w3.org/2000/svg">
<g opacity="0.5" clip-path="url(#clip0)">
<path d="M6.50398 14.9392C6.16794 14.6992 5.7839 14.5552 5.39986 14.4112C5.01581 14.2672 4.58376 14.2192 4.19972 14.2192C3.95969 14.2192 3.71966 14.2672 3.43163 14.3152C3.23961 14.3632 3.04758 14.4592 2.85556 14.5552C2.71154 14.6512 2.56753 14.7952 2.47152 14.9392C2.37551 15.0833 2.3275 15.2753 2.3275 15.4673C2.3275 15.6113 2.37551 15.7553 2.42351 15.8993C2.51952 16.0434 2.61553 16.1394 2.75955 16.1874C2.95157 16.2834 3.09559 16.3314 3.28761 16.3794C3.52764 16.4274 3.76767 16.4754 4.00769 16.5234L4.58376 16.6194C4.9198 16.6674 5.20783 16.7154 5.54387 16.8115C5.8319 16.9075 6.11994 17.0515 6.40797 17.2435C6.648 17.4355 6.84002 17.6275 6.98404 17.9156C7.12805 18.2036 7.22407 18.5397 7.22407 18.8757C7.22407 19.2597 7.12805 19.6438 6.93603 19.9798C6.74401 20.3159 6.55199 20.5559 6.26396 20.7959C5.92792 21.0359 5.59188 21.18 5.20783 21.276C4.77578 21.372 4.39174 21.468 3.95969 21.42C3.67166 21.42 3.38362 21.372 3.09559 21.324C2.80756 21.276 2.51952 21.228 2.23149 21.132C1.94346 21.0359 1.65542 20.9399 1.4154 20.7959C1.17537 20.6519 0.93534 20.5079 0.695312 20.3159L1.4154 19.2597C1.55941 19.4038 1.75143 19.4998 1.94346 19.6438C2.37551 19.8838 2.80756 20.0278 3.28761 20.1238C3.52764 20.1718 3.76767 20.1718 4.00769 20.1718C4.24772 20.1718 4.53576 20.1238 4.77578 20.0758C4.96781 20.0278 5.20783 19.9318 5.39986 19.8358C5.54387 19.7398 5.68789 19.5958 5.8319 19.4518C5.92792 19.3077 5.97592 19.1157 5.97592 18.9237C5.97592 18.5877 5.7839 18.2996 5.49587 18.2036C5.01581 18.0596 4.53576 17.9156 4.0557 17.8676L3.43163 17.7716C3.09559 17.7716 2.80756 17.6756 2.51952 17.5795C2.23149 17.4835 1.99146 17.3395 1.75143 17.1475C1.51141 16.9555 1.31938 16.7634 1.22337 16.4754C1.07936 16.1874 1.03135 15.8513 1.03135 15.5153C1.03135 15.1313 1.12736 14.7472 1.27138 14.4112C1.4634 14.0751 1.65542 13.8351 1.94346 13.5951C2.23149 13.3551 2.61553 13.211 2.95157 13.115C3.38362 13.019 3.76767 12.923 4.19972 12.971C4.72778 12.971 5.30384 13.019 5.8319 13.211C6.31196 13.3551 6.74401 13.5951 7.17606 13.8351L6.50398 14.9392ZM10.9685 15.5633C11.3525 15.5633 11.6886 15.6113 12.0246 15.8033C12.3607 15.9474 12.6487 16.1394 12.8887 16.4274C13.1287 16.7154 13.3208 17.0035 13.4168 17.3395C13.5608 17.7236 13.6088 18.1076 13.6088 18.5397C13.6088 18.6357 13.6088 18.6837 13.6088 18.7797C13.6088 18.8757 13.6088 18.9237 13.6088 19.0197H9.48033C9.52833 19.2597 9.57634 19.4518 9.72035 19.6918C9.81636 19.8838 9.96038 20.0278 10.1044 20.1238C10.2484 20.2198 10.3924 20.3159 10.5845 20.3639C10.7765 20.4119 10.9685 20.4599 11.1605 20.4599C11.4486 20.4599 11.7366 20.4119 12.0246 20.3159C12.3127 20.2198 12.5527 20.0758 12.7927 19.8838L13.4168 20.7479C13.0807 21.0359 12.7447 21.228 12.3127 21.372C11.9286 21.468 11.4966 21.564 11.1125 21.564C10.7285 21.564 10.3444 21.516 9.96038 21.372C9.62434 21.228 9.2883 21.0359 9.04828 20.7959C8.80825 20.5079 8.56822 20.2198 8.47221 19.8838C8.32819 19.4998 8.23218 19.0677 8.28019 18.6837C8.28019 18.2516 8.32819 17.8676 8.47221 17.4835C8.61623 17.1475 8.80825 16.8115 9.04828 16.5234C9.2883 16.2834 9.57634 16.0434 9.91238 15.8993C10.2004 15.6113 10.5845 15.5633 10.9685 15.5633ZM10.9685 16.6194C10.7765 16.6194 10.5845 16.6674 10.3924 16.7154C10.2484 16.7634 10.0564 16.8595 9.96038 17.0035C9.81636 17.1475 9.72035 17.2915 9.67235 17.4355C9.57634 17.6275 9.52833 17.8196 9.52833 18.0116H12.4567C12.4087 17.6275 12.2646 17.2915 11.9766 17.0035C11.6886 16.7634 11.3045 16.6194 10.9685 16.6194ZM17.4972 15.5633C17.8813 15.5633 18.3133 15.6593 18.6974 15.8033C19.0334 15.9474 19.3695 16.1874 19.6095 16.4754L18.7934 17.2915C18.6014 17.0995 18.4094 16.9555 18.1693 16.8595C17.9293 16.7634 17.6893 16.7154 17.4492 16.7154C17.2092 16.7154 17.0172 16.7634 16.7772 16.8595C16.5851 16.9555 16.3931 17.0515 16.2491 17.2435C16.1051 17.3875 15.9611 17.5795 15.9131 17.8196C15.7691 18.2996 15.7691 18.7797 15.9131 19.2597C16.0091 19.4518 16.1051 19.6438 16.2491 19.8358C16.3931 19.9798 16.5851 20.1238 16.7772 20.2198C16.9692 20.3159 17.2092 20.3639 17.4492 20.3639C17.6893 20.3639 17.9773 20.3159 18.2173 20.2198C18.4574 20.1238 18.6494 19.9798 18.8414 19.7878L19.6095 20.6519C19.3695 20.9399 19.0334 21.18 18.6974 21.324C18.3133 21.468 17.9293 21.564 17.5453 21.564C17.1132 21.564 16.7292 21.516 16.3451 21.324C15.625 21.0359 15.097 20.4599 14.8089 19.7878C14.5209 19.0197 14.5209 18.2036 14.8089 17.4355C15.097 16.7154 15.625 16.1394 16.3451 15.8993C16.6332 15.6113 17.0652 15.5153 17.4972 15.5633ZM25.8982 18.9237C25.8982 19.3077 25.8502 19.6918 25.6582 20.0758C25.5142 20.4119 25.2741 20.6519 25.0341 20.8919C24.7941 21.0839 24.5061 21.228 24.218 21.324C23.594 21.516 22.9219 21.516 22.2978 21.324C22.0098 21.228 21.7217 21.0839 21.4817 20.8919C21.2417 20.6999 21.0497 20.4119 20.9056 20.1238C20.7616 19.7398 20.6656 19.3557 20.6656 18.9717V15.7553H21.9138V18.8757C21.9138 19.1157 21.9618 19.3557 22.0098 19.5478C22.0578 19.7398 22.1538 19.8838 22.2978 20.0278C22.4418 20.1238 22.5858 20.2198 22.7299 20.2679C23.0659 20.3639 23.4499 20.3639 23.786 20.2679C23.93 20.2198 24.122 20.1238 24.218 20.0278C24.362 19.8838 24.4581 19.7398 24.5061 19.5478C24.6021 19.3077 24.6021 19.1157 24.6021 18.8757V15.7553H25.8502L25.8982 18.9237ZM30.3627 15.5633C30.5548 15.5633 30.6988 15.5633 30.8908 15.6113C31.0348 15.6593 31.1788 15.6593 31.3228 15.7073L30.9868 16.9075C30.8428 16.8595 30.6988 16.7634 30.5548 16.7634C30.4107 16.7154 30.2187 16.7154 30.0747 16.7154C29.8827 16.7154 29.6907 16.7634 29.5466 16.8115C29.4026 16.8595 29.2586 16.9555 29.1146 17.0995C28.9706 17.2435 28.9226 17.3875 28.8266 17.5795C28.7786 17.7716 28.7305 18.0116 28.7305 18.2036V21.276H27.5304V15.7073H28.7305V16.3314C28.9226 16.0914 29.1626 15.8513 29.4506 15.7553C29.6907 15.6113 30.0267 15.5633 30.3627 15.5633ZM34.4912 15.5633C34.8753 15.5633 35.2113 15.6113 35.5473 15.8033C35.8834 15.9474 36.1714 16.1394 36.4114 16.4274C36.6515 16.7154 36.8435 17.0035 36.9395 17.3395C37.0835 17.7236 37.1315 18.1076 37.1315 18.5397C37.1315 18.6357 37.1315 18.6837 37.1315 18.7797C37.1315 18.8757 37.1315 18.9237 37.1315 19.0197H33.003C33.051 19.2597 33.0991 19.4518 33.2431 19.6918C33.3391 19.8838 33.4831 20.0278 33.6271 20.1238C33.7711 20.2198 33.9151 20.3159 34.1072 20.3639C34.2992 20.4119 34.4912 20.4599 34.6832 20.4599C34.9713 20.4599 35.2593 20.4119 35.5473 20.3159C35.8354 20.2198 36.0754 20.0758 36.3154 19.8838L36.9395 20.7479C36.6035 21.0359 36.2674 21.228 35.8354 21.372C35.4513 21.468 35.0193 21.564 34.6352 21.564C34.2512 21.564 33.8671 21.516 33.4831 21.372C33.1471 21.228 32.811 21.0359 32.571 20.7959C32.331 20.5079 32.0909 20.2198 31.9949 19.8838C31.8509 19.4998 31.7549 19.0677 31.8029 18.6837C31.8029 18.2516 31.8509 17.8676 31.9949 17.4835C32.1389 17.1475 32.331 16.8115 32.571 16.5234C32.811 16.2834 33.099 16.0434 33.4351 15.8993C33.6751 15.6113 34.0592 15.5633 34.4912 15.5633ZM34.4912 16.6194C34.2992 16.6194 34.1072 16.6674 33.9151 16.7154C33.7711 16.7634 33.5791 16.8595 33.4831 17.0035C33.3391 17.1475 33.2431 17.2915 33.1951 17.4355C33.099 17.6275 33.051 17.8196 33.051 18.0116H35.9794C35.9314 17.6275 35.7874 17.2915 35.4993 17.0035C35.2593 16.7634 34.8753 16.6194 34.4912 16.6194ZM42.4601 12.971C42.7962 12.971 43.1802 13.019 43.5163 13.067C43.8523 13.163 44.1883 13.259 44.4764 13.4031C44.7644 13.5471 45.0044 13.7391 45.1964 13.9311C45.4365 14.1231 45.6285 14.3632 45.7725 14.6512L44.7164 15.3713C44.4764 14.9872 44.1403 14.6992 43.7563 14.5072C43.3242 14.3152 42.8922 14.1711 42.4121 14.1711C42.0281 14.1711 41.596 14.2192 41.26 14.4112C40.924 14.5552 40.5879 14.7472 40.3479 15.0352C40.0599 15.3233 39.8678 15.6593 39.7238 15.9954C39.4358 16.7634 39.4358 17.6275 39.7238 18.4436C39.8678 18.7797 40.0599 19.1157 40.3479 19.4038C40.5879 19.6918 40.924 19.8838 41.26 20.0278C41.644 20.1718 42.0281 20.2679 42.4121 20.2198C43.3242 20.2198 44.1883 19.7878 44.7164 19.0677L45.7725 19.7878C45.5805 20.0278 45.3885 20.2679 45.1484 20.4599C44.9084 20.6519 44.6204 20.8439 44.3804 20.9879C44.0923 21.132 43.7563 21.228 43.4682 21.324C42.5561 21.516 41.596 21.468 40.6839 21.132C39.6758 20.7479 38.8597 19.9318 38.4277 18.8757C37.9956 17.7716 37.9956 16.5714 38.4277 15.4673C38.8117 14.4592 39.6278 13.6431 40.6839 13.211C41.26 13.019 41.8361 12.875 42.4121 12.923L42.4601 12.971ZM49.661 15.5633C50.093 15.5633 50.4771 15.6593 50.8611 15.8033C51.1971 15.9474 51.5332 16.1394 51.8212 16.4274C52.1092 16.7154 52.3013 17.0035 52.4453 17.3875C52.7333 18.1556 52.7333 18.9717 52.4453 19.7398C52.3013 20.0758 52.0612 20.4119 51.8212 20.6519C51.5332 20.9399 51.1971 21.132 50.8611 21.276C50.093 21.564 49.2289 21.564 48.4608 21.276C48.1248 21.132 47.7887 20.9399 47.5007 20.6519C47.2127 20.3639 47.0207 20.0758 46.8766 19.7398C46.5886 18.9717 46.5886 18.1556 46.8766 17.3875C47.0207 17.0515 47.2127 16.7154 47.5007 16.4274C47.7887 16.1394 48.1248 15.9474 48.4608 15.8033C48.8449 15.6593 49.2289 15.5633 49.613 15.5633H49.661ZM49.661 16.7154C49.4209 16.7154 49.1809 16.7634 48.9409 16.8595C48.7489 16.9555 48.5568 17.0515 48.3648 17.2435C48.2208 17.3875 48.0768 17.5795 47.9808 17.8196C47.7887 18.2996 47.7887 18.7797 47.9808 19.2597C48.0768 19.4518 48.1728 19.6438 48.3648 19.8358C48.5088 19.9798 48.7008 20.1238 48.9409 20.2198C49.3729 20.4119 49.901 20.4119 50.333 20.2198C50.7651 20.0278 51.1011 19.6918 51.2451 19.2597C51.4372 18.7797 51.4372 18.2996 51.2451 17.8196C51.1491 17.6275 51.0531 17.4355 50.8611 17.2435C50.7171 17.0995 50.5251 16.9555 50.285 16.8595C50.045 16.7634 49.805 16.7154 49.5649 16.7634L49.661 16.7154ZM56.3817 15.5633C57.0538 15.5153 57.7259 15.8513 58.1579 16.3794V12.875H59.3581V21.324H58.1579V20.6519C57.9659 20.8919 57.6779 21.0839 57.3899 21.228C57.0538 21.372 56.7178 21.468 56.3337 21.468C55.5656 21.468 54.8456 21.18 54.3655 20.6519C54.1255 20.3639 53.8854 20.0758 53.7894 19.7398C53.5014 18.9717 53.5014 18.1076 53.7894 17.3875C53.9335 17.0515 54.1255 16.7154 54.3655 16.4274C54.8936 15.8993 55.6136 15.6113 56.3337 15.6113L56.3817 15.5633ZM56.5738 16.7154C56.3337 16.7154 56.0937 16.7634 55.8537 16.8595C55.6617 16.9555 55.4696 17.0995 55.3256 17.2435C55.1816 17.3875 55.0856 17.6275 54.9896 17.8196C54.8456 18.2516 54.8456 18.7797 54.9896 19.2117C55.0376 19.4038 55.1336 19.5958 55.2776 19.7878C55.4216 19.9318 55.6136 20.0758 55.8057 20.1718C56.2377 20.3639 56.7658 20.3639 57.1978 20.1718C57.3899 20.0758 57.5819 19.9318 57.7259 19.7878C57.8699 19.6438 58.0139 19.4518 58.0619 19.2117C58.2059 18.7317 58.2059 18.2516 58.0619 17.7716C57.9659 17.5795 57.8699 17.3875 57.7259 17.1955C57.5819 17.0515 57.3899 16.9075 57.1978 16.8115C56.9578 16.7154 56.7658 16.6674 56.5258 16.6674L56.5738 16.7154ZM63.4385 15.5633C63.8226 15.5633 64.1586 15.6113 64.4947 15.8033C64.8307 15.9474 65.1187 16.1394 65.3588 16.3794C65.5988 16.6674 65.7908 16.9555 65.8868 17.2915C66.0308 17.6756 66.0788 18.0596 66.0788 18.4916C66.0788 18.5877 66.0788 18.6357 66.0788 18.7317C66.0788 18.8277 66.0788 18.8757 66.0788 18.9717H61.9504C61.9984 19.2117 62.0464 19.4038 62.1904 19.6438C62.2864 19.8358 62.4304 19.9798 62.5744 20.0758C62.7185 20.1718 62.8625 20.2679 63.0545 20.3159C63.2465 20.3639 63.4386 20.4119 63.6306 20.4119C63.9186 20.4119 64.2066 20.3639 64.4947 20.2679C64.7827 20.1718 65.0227 20.0278 65.2628 19.8358L65.8868 20.6999C65.5508 20.9879 65.2148 21.18 64.7827 21.324C64.3987 21.42 63.9666 21.516 63.5826 21.516C63.1985 21.516 62.8145 21.468 62.4304 21.324C62.0944 21.18 61.7584 20.9879 61.5183 20.7479C61.2783 20.4599 61.0383 20.1718 60.9423 19.8358C60.7982 19.4518 60.7022 19.0197 60.7502 18.6357C60.7502 18.2036 60.7982 17.8196 60.9423 17.4355C61.0863 17.0995 61.2783 16.7634 61.5183 16.4754C61.7584 16.2354 62.0464 15.9954 62.3824 15.8513C62.6705 15.6113 63.0545 15.5633 63.4385 15.5633ZM66.6549 21.324V21.0359H66.7509V20.9879H66.4629V21.0359H66.5589V21.324H66.6549ZM67.231 21.324V20.9879H67.135L67.039 21.228L66.943 20.9879H66.8469V21.324H66.8949V21.0839L66.991 21.324H67.039L67.135 21.0839V21.324H67.231ZM63.3905 16.6194C63.1985 16.6194 63.0065 16.6674 62.8145 16.7154C62.6705 16.7634 62.4784 16.8595 62.3824 17.0035C62.2384 17.1475 62.1424 17.2915 62.0944 17.4355C61.9984 17.6275 61.9504 17.8196 61.9504 18.0116H64.8787C64.8307 17.6275 64.6867 17.2915 64.3987 17.0035C64.0626 16.7634 63.7266 16.6194 63.3905 16.6194Z" fill="white"/>
<path d="M10.5362 9.75474H9.19209V2.69793L6.6958 8.89064H5.25564L2.75935 2.79394V9.75474H1.36719V1.20975H3.47943L5.97572 7.30646L8.47201 1.20975H10.5843L10.5362 9.75474ZM17.7851 9.75474H16.5369V9.03466C16.3449 9.27468 16.0569 9.51471 15.7688 9.65873C15.4328 9.80275 15.0488 9.89876 14.7127 9.89876C13.9446 9.89876 13.1765 9.61072 12.6485 9.03466C12.3605 8.74662 12.1684 8.41058 12.0244 8.07455C11.7364 7.25845 11.7364 6.39435 12.0244 5.62626C12.1684 5.29022 12.3605 4.95419 12.6485 4.66615C13.1765 4.09009 13.9446 3.80205 14.7127 3.80205C15.0968 3.80205 15.4328 3.85006 15.7688 4.04208C16.0569 4.1861 16.2969 4.42613 16.5369 4.66615V3.89806H17.7851V9.75474ZM14.8087 4.95419C14.5687 4.95419 14.2807 5.00219 14.0887 5.0982C13.8966 5.19421 13.7046 5.33823 13.5606 5.48225C13.4166 5.67427 13.2726 5.86629 13.2246 6.05831C13.0805 6.53837 13.0805 7.01842 13.2246 7.49848C13.3206 7.73851 13.4166 7.93053 13.5606 8.07455C13.7046 8.26657 13.8966 8.36258 14.0887 8.45859C14.5687 8.65061 15.0488 8.65061 15.5288 8.45859C15.7208 8.36258 15.9129 8.21856 16.0569 8.07455C16.2009 7.88252 16.3449 7.6905 16.4409 7.49848C16.6329 7.01842 16.6329 6.49036 16.4409 6.01031C16.3449 5.77028 16.2489 5.57826 16.0569 5.43424C15.9129 5.29023 15.7208 5.14621 15.5288 5.0502C15.2888 5.00219 15.0488 4.95419 14.8087 4.95419ZM23.5937 5.33823C23.4977 5.29023 23.4017 5.24222 23.2577 5.19421C23.1137 5.14621 22.9697 5.0982 22.8257 5.0502C22.6816 5.00219 22.4896 4.95419 22.3456 4.95419C22.1536 4.90618 22.0096 4.90618 21.8175 4.90618C21.5295 4.90618 21.2415 4.95419 21.0014 5.0982C20.8094 5.19421 20.7134 5.38624 20.7134 5.57826C20.7134 5.67427 20.7614 5.77028 20.8094 5.81829C20.8574 5.9143 20.9534 5.9623 21.0014 6.01031C21.0975 6.05831 21.1935 6.10632 21.2895 6.10632L21.6735 6.20233L22.2496 6.29834C22.7777 6.34635 23.3057 6.53837 23.7378 6.87441C24.0738 7.16244 24.3138 7.59449 24.2658 8.02654C24.2658 8.31457 24.2178 8.5546 24.0738 8.79463C23.9298 9.03466 23.7858 9.22668 23.5457 9.3707C23.3057 9.56272 23.0177 9.70673 22.7297 9.75474C22.3456 9.85075 21.9616 9.89876 21.6255 9.89876C21.4815 9.89876 21.2895 9.89876 21.0975 9.85075C20.9054 9.85075 20.6654 9.80274 20.4734 9.75474C20.2334 9.70673 19.9933 9.61072 19.8013 9.51471C19.5613 9.4187 19.3213 9.27468 19.1292 9.13067L19.7053 8.17056C19.8013 8.26657 19.9453 8.31457 20.0413 8.41058C20.1854 8.5066 20.3294 8.5546 20.4734 8.60261C20.6654 8.65061 20.8094 8.69862 21.0014 8.74662C21.1935 8.79463 21.4335 8.79463 21.6255 8.79463C21.9616 8.79463 22.2976 8.74662 22.6336 8.60261C22.8257 8.5066 22.9697 8.31457 22.9697 8.07455C22.9697 7.88252 22.8737 7.73851 22.7297 7.6425C22.4896 7.49848 22.2496 7.45047 21.9616 7.40247L21.3375 7.30646C20.8574 7.25845 20.3294 7.01842 19.8973 6.73039C19.5613 6.44236 19.4173 6.01031 19.4173 5.57826C19.4173 5.29023 19.5133 5.0502 19.6093 4.81017C19.7053 4.57014 19.8973 4.37812 20.0893 4.2341C20.3294 4.04208 20.5694 3.94607 20.8574 3.85006C21.1935 3.75405 21.5295 3.70604 21.8655 3.70604C22.2976 3.70604 22.7296 3.80205 23.1137 3.94607C23.4977 4.04208 23.8338 4.1861 24.1698 4.37812L23.5937 5.33823ZM29.6424 5.0502H27.4342V7.59449C27.4342 7.73851 27.4342 7.93053 27.4822 8.07455C27.5302 8.21856 27.5782 8.31457 27.6742 8.41058C27.7702 8.5066 27.8662 8.5546 27.9623 8.60261C28.0583 8.65061 28.2023 8.65061 28.3463 8.65061C28.5383 8.65061 28.7783 8.60261 28.9704 8.5546C29.1624 8.45859 29.3544 8.41058 29.5464 8.26657L30.0265 9.27468C29.7865 9.4187 29.4984 9.56272 29.2584 9.65873C28.9224 9.75474 28.5863 9.85075 28.2503 9.85075C27.6742 9.89876 27.1462 9.70673 26.7141 9.27468C26.3301 8.79463 26.09 8.17056 26.186 7.54648V5.0502H25.0339V3.89806H26.138V2.12186H27.4342V3.89806H29.6424V5.0502ZM33.5789 3.75405C33.9629 3.75405 34.347 3.80205 34.683 3.99408C35.0191 4.13809 35.3071 4.33011 35.5471 4.61815C35.7872 4.90618 35.9792 5.24222 36.1232 5.57826C36.2672 5.9623 36.3152 6.39435 36.3152 6.8264C36.3152 6.92241 36.3152 6.97042 36.3152 7.06643C36.3152 7.16244 36.3152 7.21045 36.3152 7.30646H31.9947C32.0427 7.54648 32.0907 7.78651 32.2347 7.97854C32.3308 8.17056 32.4748 8.31457 32.6188 8.45859C32.7628 8.5546 32.9548 8.65061 33.1468 8.69862C33.3389 8.74662 33.5309 8.79463 33.7229 8.79463C34.011 8.79463 34.299 8.74662 34.587 8.65061C34.875 8.5546 35.1631 8.41058 35.4031 8.21856L36.0272 9.13067C35.6911 9.4187 35.3071 9.65873 34.875 9.75474C34.443 9.89876 34.059 9.94676 33.6269 9.94676C33.1949 9.94676 32.8108 9.89876 32.4268 9.70673C32.0427 9.56272 31.7547 9.3707 31.4667 9.08266C31.1786 8.79463 30.9866 8.45859 30.8426 8.12255C30.6986 7.73851 30.6026 7.30646 30.6026 6.87441C30.6026 6.44236 30.6506 6.01031 30.7946 5.62626C30.9386 5.29022 31.1306 4.95419 31.3706 4.66615C31.6107 4.37812 31.9467 4.1861 32.2828 4.04208C32.7628 3.85006 33.1469 3.75405 33.5789 3.75405ZM33.5309 4.90618C33.3389 4.90618 33.0988 4.95419 32.9068 5.00219C32.7148 5.0502 32.5708 5.14621 32.4268 5.29023C32.2827 5.43424 32.1867 5.57826 32.1387 5.77028C32.0427 5.9623 31.9947 6.15432 31.9467 6.34635H34.9711C34.9231 5.9623 34.779 5.57826 34.491 5.29023C34.299 5.0502 33.9149 4.90618 33.5309 4.90618ZM40.7317 3.75405C40.9237 3.75405 41.0678 3.75405 41.2598 3.80205C41.4038 3.85006 41.5478 3.85006 41.6918 3.94607L41.4038 5.19421C41.2598 5.0982 41.0678 5.0502 40.9237 5.0502C40.7797 5.00219 40.5877 5.00219 40.4437 5.00219C40.2517 5.00219 40.0596 5.0502 39.8676 5.0982C39.6756 5.14621 39.5316 5.24222 39.3876 5.38624C39.2436 5.53025 39.1475 5.67427 39.0995 5.86629C39.0035 6.05831 39.0035 6.29834 39.0035 6.53837V9.75474H37.7554V3.89806H39.0035V4.57014C39.1955 4.28211 39.4356 4.09009 39.7236 3.94607C40.0596 3.80205 40.3957 3.75405 40.7317 3.75405ZM45.1002 3.75405C45.5323 3.75405 45.9163 3.85006 46.3004 3.99408C46.6844 4.13809 47.0205 4.37812 47.2605 4.71416L46.4444 5.57826C46.2524 5.38624 46.0603 5.24222 45.8203 5.14621C45.5803 5.0502 45.3403 5.00219 45.0522 5.00219C44.8122 5.00219 44.5722 5.0502 44.3801 5.14621C44.1881 5.24222 43.9961 5.38624 43.8521 5.53025C43.7081 5.72227 43.564 5.9143 43.468 6.10632C43.276 6.58637 43.276 7.11444 43.468 7.6425C43.564 7.88252 43.6601 8.07455 43.8521 8.21856C43.9961 8.36258 44.1881 8.5066 44.3801 8.60261C44.5722 8.69862 44.8122 8.74662 45.0522 8.74662C45.3403 8.74662 45.5803 8.69862 45.8203 8.5546C46.0603 8.45859 46.2524 8.31457 46.4444 8.12255L47.2125 8.98665C46.9724 9.27468 46.6364 9.51471 46.2524 9.70673C45.8683 9.85075 45.4363 9.94676 45.0522 9.94676C44.6202 9.94676 44.1881 9.85075 43.8041 9.70673C43.084 9.4187 42.5079 8.84263 42.2199 8.07455C41.9319 7.30646 41.9319 6.44236 42.2199 5.62626C42.5079 4.90618 43.084 4.28211 43.8041 3.99408C44.2361 3.85006 44.6202 3.75405 45.1002 3.75405ZM54.0293 9.75474H52.7811V9.03466C52.5891 9.27468 52.3011 9.51471 52.013 9.65873C51.677 9.80275 51.2929 9.89876 50.9569 9.89876C50.1888 9.89876 49.4207 9.61072 48.8927 9.03466C48.6046 8.74662 48.4126 8.41058 48.2686 8.07455C47.9806 7.25845 47.9806 6.39435 48.2686 5.62626C48.4126 5.29022 48.6046 4.95419 48.8927 4.66615C49.4207 4.09009 50.1888 3.80205 50.9569 3.80205C51.3409 3.80205 51.677 3.85006 52.013 4.04208C52.3011 4.1861 52.5411 4.42613 52.7811 4.66615V3.89806H54.0293V9.75474ZM51.0529 4.95419C50.8129 4.95419 50.5249 5.00219 50.3328 5.0982C50.1408 5.19421 49.9488 5.33823 49.8048 5.48225C49.6608 5.67427 49.5167 5.86629 49.4687 6.05831C49.3247 6.53837 49.3247 7.01842 49.4687 7.49848C49.5647 7.73851 49.6608 7.93053 49.8048 8.07455C49.9488 8.26657 50.1408 8.36258 50.3328 8.45859C50.8129 8.65061 51.2929 8.65061 51.773 8.45859C51.965 8.36258 52.157 8.21856 52.3011 8.07455C52.4451 7.88252 52.5891 7.6905 52.6851 7.49848C52.8771 7.01842 52.8771 6.49036 52.6851 6.01031C52.5891 5.77028 52.4931 5.57826 52.3011 5.43424C52.157 5.29023 51.965 5.14621 51.773 5.0502C51.533 5.00219 51.2929 4.95419 51.0529 4.95419ZM58.8298 3.75405C59.0218 3.75405 59.1658 3.75405 59.3579 3.80205C59.5019 3.85006 59.6459 3.85006 59.7899 3.94607L59.5019 5.19421C59.3579 5.0982 59.1658 5.0502 59.0218 5.0502C58.8778 5.00219 58.6858 5.00219 58.5418 5.00219C58.3498 5.00219 58.1577 5.0502 57.9657 5.0982C57.8217 5.14621 57.6297 5.29022 57.5337 5.38624C57.3896 5.53025 57.2936 5.67427 57.2456 5.86629C57.1496 6.05831 57.1496 6.29834 57.1496 6.53837V9.75474H55.9015V3.89806H57.1496V4.57014C57.3416 4.28211 57.5817 4.09009 57.8697 3.94607C58.1577 3.80205 58.4938 3.75405 58.8298 3.75405ZM63.0063 3.75405C63.3903 3.75405 63.7264 3.80205 64.0624 3.99408C64.3504 4.13809 64.5905 4.37812 64.8305 4.61815V0.969727H66.0787V9.75474H64.8305V9.03466C64.6385 9.27468 64.3504 9.51471 64.0624 9.65873C63.7264 9.80275 63.3423 9.89876 63.0063 9.89876C62.2382 9.89876 61.4701 9.61072 60.9421 9.03466C60.654 8.74662 60.462 8.41058 60.318 8.07455C60.0299 7.25845 60.0299 6.39435 60.318 5.62626C60.462 5.29022 60.654 4.95419 60.9421 4.66615C61.5181 4.09009 62.2382 3.75405 63.0063 3.75405ZM67.6148 9.17867C67.6628 9.17867 67.7108 9.22668 67.7588 9.22668C67.8068 9.22668 67.8549 9.27468 67.8549 9.32269C67.9029 9.3707 67.9029 9.4187 67.9509 9.4187C67.9989 9.51471 67.9989 9.61072 67.9509 9.70673C67.9509 9.75474 67.9029 9.80274 67.8549 9.80274C67.8068 9.85075 67.7588 9.85075 67.7588 9.89876C67.7108 9.89876 67.6628 9.94676 67.6148 9.94676C67.4708 9.94676 67.3268 9.85075 67.2788 9.70673C67.2308 9.61072 67.2308 9.51471 67.2788 9.4187C67.3268 9.32269 67.3748 9.27468 67.4708 9.22668C67.5188 9.17867 67.5668 9.17867 67.6148 9.17867ZM67.6148 9.80274C67.6628 9.80274 67.7108 9.80274 67.7108 9.80274C67.7588 9.80274 67.7588 9.75474 67.8068 9.75474C67.9029 9.65873 67.9029 9.46671 67.8068 9.3707C67.7588 9.32269 67.7588 9.32269 67.7108 9.32269C67.6628 9.32269 67.6148 9.32269 67.6148 9.32269C67.5668 9.32269 67.5188 9.32269 67.5188 9.32269C67.3748 9.3707 67.2788 9.56272 67.3748 9.70673C67.3748 9.75474 67.4228 9.80274 67.4708 9.80274C67.5188 9.85075 67.5188 9.85075 67.5668 9.85075C67.5188 9.85075 67.5668 9.85075 67.6148 9.80274ZM67.6148 9.32269C67.6628 9.32269 67.6628 9.32269 67.7108 9.3707C67.7108 9.3707 67.7588 9.4187 67.7588 9.46671C67.7588 9.51471 67.7588 9.51471 67.7108 9.56272C67.7108 9.56272 67.6628 9.61072 67.6148 9.61072L67.7108 9.75474H67.6148L67.5188 9.61072H67.4708V9.75474H67.4228V9.4187H67.6148V9.32269ZM67.5188 9.4187V9.51471H67.6148H67.6628C67.6628 9.51471 67.6628 9.51471 67.6628 9.46671C67.6628 9.46671 67.6628 9.46671 67.6628 9.4187H67.6148H67.5188ZM63.1503 4.90618C62.9103 4.90618 62.6222 4.95419 62.4302 5.0502C62.2382 5.14621 62.0462 5.29023 61.9022 5.43424C61.7581 5.62626 61.6141 5.81829 61.5661 6.01031C61.4221 6.49036 61.4221 6.97042 61.5661 7.45047C61.6621 7.6905 61.7581 7.88252 61.9022 8.02654C62.0462 8.21856 62.2382 8.31457 62.4302 8.41058C62.9103 8.60261 63.3903 8.60261 63.8704 8.41058C64.0624 8.31457 64.2544 8.17056 64.3985 8.02654C64.5425 7.83452 64.6865 7.6425 64.7825 7.45047C64.9745 6.97042 64.9745 6.44236 64.7825 5.9623C64.6865 5.72227 64.5905 5.53025 64.3985 5.38624C64.2544 5.24222 64.0624 5.0982 63.8704 5.00219C63.6304 4.95419 63.3903 4.95419 63.1503 4.90618Z" fill="white"/>
</g>
<defs>
<clipPath id="clip0">
<rect width="67.3038" height="20.4984" fill="white" transform="translate(0.695312 0.969727)"/>
</clipPath>
</defs>
</svg>
