<svg width="57" height="19" viewBox="0 0 57 19" fill="none" xmlns="http://www.w3.org/2000/svg">
<g opacity="0.5">
<g clip-path="url(#clip0)">
<path d="M16.659 0.608875L11.9263 12.6298L9.98593 2.40729C9.74929 1.27145 8.85009 0.608875 7.90355 0.608875H0.0946533L0 1.12947C1.60911 1.46075 3.40752 2.02867 4.49603 2.64392C5.15861 3.02253 5.34791 3.30649 5.58455 4.2057L9.2287 18.2617H14.056L21.439 0.608875H16.659ZM23.3794 0.608875L19.5932 18.2617H24.1366L27.9227 0.608875H23.3794V0.608875ZM49.551 5.38887L50.9235 12.0146H47.1374L49.551 5.38887ZM48.8885 0.608875C47.9892 0.608875 47.2793 1.12947 46.9481 1.88669L40.0857 18.2617H44.8657L45.8122 15.6114H51.6807L52.2486 18.2617H56.4607L52.7692 0.608875H48.8885V0.608875ZM29.2006 6.09877C29.1532 8.65441 31.4722 10.0742 33.176 10.8788C34.9744 11.7306 35.5423 12.2986 35.5423 13.0558C35.5423 14.239 34.1225 14.7595 32.7974 14.7595C30.5257 14.8069 29.1532 14.1443 28.112 13.6237L27.3075 17.5045C28.396 17.9778 30.3364 18.4037 32.3714 18.451C37.1514 18.451 40.3223 16.0847 40.3223 12.3932C40.3223 7.7552 33.8859 7.47124 33.9332 5.38887C33.9332 4.77362 34.5485 4.06372 35.8736 3.92174C36.5362 3.82709 38.3346 3.77976 40.3697 4.72629L41.1742 1.08214C40.0857 0.656201 38.6659 0.277588 36.9148 0.277588C32.4188 0.277588 29.2479 2.69125 29.2006 6.09877Z" fill="white"/>
</g>
</g>
<defs>
<clipPath id="clip0">
<rect width="56.4607" height="18.2208" fill="white" transform="translate(0 0.277588)"/>
</clipPath>
</defs>
</svg>
