<svg width="979" height="345" viewBox="0 0 979 345" fill="none" xmlns="http://www.w3.org/2000/svg">
  <mask id="mask0" mask-type="alpha" maskUnits="userSpaceOnUse" x="0" y="0" width="979" height="345">
    <rect width="979" height="345" fill="white"/>
  </mask>
  <g mask="url(#mask0)">
    <rect width="979" height="345" fill="#013B42"/>
    <path d="M859.495 384.605C895.852 354.887 969.403 349.769 1000.59 377.951C1031.78 406.132 1059.87 381.533 1063.28 362.346C1069.44 327.848 1039.35 271.47 958.728 239.937C853.276 198.741 767.322 235.615 721.143 281.174C684.72 317.123 671.567 385.408 718.805 419.433C773.666 458.992 835.902 403.828 859.495 384.605Z" fill="#F77211"/>
    <path d="M634.418 -188.997C530.843 -256.726 417.589 -221.664 314.205 -182.201C210.821 -142.738 133.718 -239.021 97.5275 -316.513C53.2419 -411.286 -71.0185 -451.172 -159.433 -385.151C-230.278 -332.223 -260.926 -217.533 -167.769 -132.212C-78.4607 -50.2237 -14.8625 38.6845 -21.3792 136.743C-27.9218 234.896 -41.311 337.626 57.9795 400.596C134.787 449.294 219.785 416.847 249.935 335.281C280.466 252.703 332.523 239.94 404.047 247.533C475.572 255.126 532.633 264.494 592.17 239.942C651.733 215.295 699.211 175.459 732.422 88.0219C765.632 0.585245 737.993 -121.267 634.418 -188.997Z" fill="#D13B09"/>
    <path d="M762.594 30.7748C733.254 23.099 703.095 40.099 695.233 68.7453C687.371 97.3916 704.783 126.836 734.124 134.512C763.465 142.188 793.623 125.188 801.485 96.5416C809.347 67.8953 791.935 38.4505 762.594 30.7748Z" fill="#F49A81"/>
  </g>
</svg>
