<svg width="459" height="305" viewBox="0 0 459 305" fill="none" xmlns="http://www.w3.org/2000/svg">
  <mask id="mask0" mask-type="alpha" maskUnits="userSpaceOnUse" x="0" y="0" width="459" height="305">
    <rect width="459" height="305" fill="white"/>
  </mask>
  <g mask="url(#mask0)">
    <rect width="708" height="305" fill="#013B42"/>
    <path d="M489.495 384.605C525.852 354.887 599.403 349.769 630.59 377.951C661.778 406.132 689.871 381.533 693.282 362.346C699.443 327.848 669.351 271.47 588.728 239.937C483.276 198.741 397.322 235.615 351.143 281.174C314.72 317.123 301.567 385.408 348.805 419.433C403.666 458.992 465.902 403.828 489.495 384.605Z" fill="#F77211"/>
    <path d="M344.418 -228.996C240.843 -296.725 127.589 -261.663 24.2054 -222.2C-79.1787 -182.737 -156.282 -279.02 -192.473 -356.513C-236.758 -451.285 -361.019 -491.171 -449.433 -425.151C-520.278 -372.222 -550.926 -257.532 -457.769 -172.212C-368.461 -90.2228 -304.863 -1.31461 -311.379 96.7441C-317.922 194.897 -331.311 297.627 -232.021 360.597C-155.213 409.295 -70.2153 376.848 -40.0653 295.282C-9.5341 212.704 42.523 199.941 114.047 207.534C185.572 215.127 242.633 224.495 302.17 199.943C361.733 175.296 409.211 135.459 442.422 48.0227C475.632 -39.4139 447.993 -161.266 344.418 -228.996Z" fill="#D13B09"/>
    <path d="M472.594 -9.22534C443.254 -16.9011 413.095 0.0988922 405.233 28.7452C397.371 57.3914 414.783 86.8362 444.124 94.512C473.465 102.188 503.623 85.1878 511.485 56.5415C519.347 27.8952 501.935 -1.54959 472.594 -9.22534Z" fill="#F49A81"/>
  </g>
</svg>
