<svg width="333" height="230" viewBox="0 0 333 230" fill="none" xmlns="http://www.w3.org/2000/svg">
  <mask id="mask0" mask-type="alpha" maskUnits="userSpaceOnUse" x="0" y="0" width="333" height="230">
    <rect width="333" height="230" fill="white"/>
  </mask>
  <g mask="url(#mask0)">
    <rect width="333" height="230" fill="#013B42"/>
    <path d="M357.495 324.605C393.852 294.887 467.403 289.769 498.59 317.951C529.778 346.132 557.871 321.533 561.282 302.346C567.443 267.848 537.351 211.47 456.728 179.937C351.276 138.741 265.322 175.615 219.143 221.174C182.72 257.123 169.567 325.408 216.805 359.433C271.666 398.992 333.902 343.828 357.495 324.605Z" fill="#F77211"/>
    <path d="M122.418 -248.996C18.8431 -316.725 -94.4105 -281.663 -197.795 -242.2C-301.179 -202.737 -378.282 -299.02 -414.473 -376.513C-458.758 -471.285 -583.019 -511.171 -671.433 -445.151C-742.278 -392.222 -772.926 -277.532 -679.769 -192.212C-590.461 -110.223 -526.863 -21.3146 -533.379 76.7441C-539.922 174.897 -553.311 277.627 -454.021 340.597C-377.213 389.295 -292.215 356.848 -262.065 275.282C-231.534 192.704 -179.477 179.941 -107.953 187.534C-36.4283 195.127 20.6325 204.495 80.1699 179.943C139.733 155.296 187.211 115.459 220.422 28.0227C253.632 -59.4139 225.993 -181.266 122.418 -248.996Z" fill="#D13B09"/>
    <path d="M260.594 -29.2253C231.254 -36.9011 201.095 -19.9011 193.233 8.74516C185.371 37.3914 202.783 66.8362 232.124 74.512C261.465 82.1877 291.623 65.1878 299.485 36.5415C307.347 7.89523 289.935 -21.5496 260.594 -29.2253Z" fill="#F49A81"/>
  </g>
</svg>
