<?xml version="1.0" encoding="UTF-8" standalone="no"?>
<svg
   xmlns:dc="http://purl.org/dc/elements/1.1/"
   xmlns:cc="http://creativecommons.org/ns#"
   xmlns:rdf="http://www.w3.org/1999/02/22-rdf-syntax-ns#"
   xmlns:svg="http://www.w3.org/2000/svg"
   xmlns="http://www.w3.org/2000/svg"
   xmlns:sodipodi="http://sodipodi.sourceforge.net/DTD/sodipodi-0.dtd"
   xmlns:inkscape="http://www.inkscape.org/namespaces/inkscape"
   width="380"
   height="172"
   viewBox="0 0 380 172"
   fill="none"
   version="1.1"
   id="svg2860"
   sodipodi:docname="right_bottom_desktop.svg"
   inkscape:version="0.92.5 (2060ec1f9f, 2020-04-08)">
  <metadata
     id="metadata2866">
    <rdf:RDF>
      <cc:Work
         rdf:about="">
        <dc:format>image/svg+xml</dc:format>
        <dc:type
           rdf:resource="http://purl.org/dc/dcmitype/StillImage" />
      </cc:Work>
    </rdf:RDF>
  </metadata>
  <defs
     id="defs2864" />
  <sodipodi:namedview
     pagecolor="#ffffff"
     bordercolor="#666666"
     borderopacity="1"
     objecttolerance="10"
     gridtolerance="10"
     guidetolerance="10"
     inkscape:pageopacity="0"
     inkscape:pageshadow="2"
     inkscape:window-width="1848"
     inkscape:window-height="1016"
     id="namedview2862"
     showgrid="false"
     inkscape:zoom="1.2657895"
     inkscape:cx="94.012474"
     inkscape:cy="86"
     inkscape:window-x="72"
     inkscape:window-y="27"
     inkscape:window-maximized="1"
     inkscape:current-layer="svg2860" />
  <mask
     id="mask0"
     mask-type="alpha"
     maskUnits="userSpaceOnUse"
     x="0"
     y="0"
     width="380"
     height="172">
    <path
       d="M0 0H380V172H0V0Z"
       fill="#EBEBEB"
       id="path2841" />
  </mask>
  <g
     mask="url(#mask0)"
     id="g2852">
    <path
       d="M0 0H380V172H0V0Z"
       fill="#013B42"
       id="path2844" />
    <path
       d="M288.398 76.102C367.198 54.3363 401.042 -1.29988 408.169 -44.9763C413.797 -79.4443 392.002 -121.592 349.988 -120.153C301.229 -118.544 288.944 -63.0124 283.565 -42.8706C275.287 -11.7585 234.967 21.6507 204.716 19.4683C174.505 17.3445 168.896 42.2165 175.148 53.9879C186.445 75.0124 228.162 92.766 288.398 76.102Z"
       fill="#D13B09"
       id="path2846" />
    <path
       d="M-120.505 211.605C-84.1481 181.887 -10.5973 176.769 20.5905 204.951C51.7782 233.132 79.8709 208.533 83.2823 189.346C89.4435 154.848 59.3513 98.4703 -21.2723 66.9365C-126.724 25.7409 -212.678 62.6148 -258.857 108.174C-295.28 144.123 -308.433 212.408 -261.195 246.433C-206.334 285.992 -144.098 230.828 -120.505 211.605Z"
       fill="#F77211"
       id="path2848" />
    <path
       d="M336.456 89.7427C320.11 85.4666 303.309 94.9372 298.929 110.896C294.55 126.855 304.25 143.258 320.595 147.534C336.941 151.81 353.742 142.34 358.122 126.381C362.501 110.422 352.801 94.0188 336.456 89.7427Z"
       fill="#9ED924"
       id="path2850" />
  </g>
</svg>
