<svg width="248" height="152" viewBox="0 0 248 152" fill="none" xmlns="http://www.w3.org/2000/svg">
  <mask id="mask0" mask-type="alpha" maskUnits="userSpaceOnUse" x="0" y="0" width="248" height="152">
    <path d="M0 0H248V152H0V0Z" fill="#EBEBEB"/>
  </mask>
  <g mask="url(#mask0)">
    <path d="M0 0H248V152H0V0Z" fill="#013B42"/>
    <path d="M308.398 76.102C387.198 54.3363 421.042 -1.29988 428.169 -44.9763C433.797 -79.4443 412.002 -121.592 369.988 -120.153C321.229 -118.544 308.944 -63.0124 303.565 -42.8706C295.287 -11.7585 254.967 21.6507 224.716 19.4683C194.505 17.3445 188.896 42.2165 195.148 53.9879C206.445 75.0124 248.162 92.766 308.398 76.102Z" fill="#D13B09"/>
    <path d="M29.4954 230.605C65.8519 200.887 139.403 195.769 170.59 223.951C201.778 252.132 229.871 227.533 233.282 208.346C239.443 173.848 209.351 117.47 128.728 85.9365C23.276 44.7409 -62.6781 81.6148 -108.857 127.174C-145.28 163.123 -158.433 231.408 -111.195 265.433C-56.3337 304.992 5.90234 249.828 29.4954 230.605Z" fill="#F57336"/>
  </g>
</svg>
