<svg width="20" height="20" viewBox="0 0 20 20" fill="none" xmlns="http://www.w3.org/2000/svg">
  <path fill-rule="evenodd" clip-rule="evenodd" d="M5.66175 0.0587158C6.68926 0.0115407 7.01758 0 9.63372 0H9.63071C12.2476 0 12.5748 0.0115407 13.6023 0.0587158C14.6278 0.106093 15.3282 0.26989 15.9423 0.51022C16.5764 0.758244 17.1123 1.09029 17.6481 1.63088C18.1839 2.17107 18.5131 2.71328 18.7599 3.35247C18.9967 3.9704 19.1593 4.67661 19.2074 5.71123C19.2536 6.74786 19.2656 7.0791 19.2656 9.71848C19.2656 12.3579 19.2536 12.6883 19.2074 13.7249C19.1593 14.7591 18.9967 15.4655 18.7599 16.0837C18.5131 16.7227 18.1839 17.2649 17.6481 17.8051C17.1129 18.3457 16.5762 18.6785 15.9429 18.9267C15.33 19.1671 14.6292 19.3309 13.6037 19.3782C12.5762 19.4254 12.2489 19.437 9.63251 19.437C7.01657 19.437 6.68845 19.4254 5.66094 19.3782C4.63564 19.3309 3.93545 19.1671 3.32255 18.9267C2.68939 18.6785 2.15195 18.3457 1.61672 17.8051C1.08109 17.2649 0.751969 16.7227 0.505728 16.0835C0.267715 15.4655 0.10536 14.7593 0.0581989 13.7247C0.0116398 12.6881 0 12.3579 0 9.71848C0 7.0791 0.0120411 6.74766 0.0579982 5.71102C0.104156 4.67682 0.266711 3.9704 0.505527 3.35227C0.752371 2.71328 1.0815 2.17107 1.61733 1.63088C2.15276 1.09049 2.69019 0.758446 3.32376 0.51022C3.93625 0.26989 4.63624 0.106093 5.66175 0.0587158ZM9.3142 1.75038C9.11941 1.75029 8.9389 1.75021 8.77111 1.75048V1.74805C6.97578 1.75007 6.6314 1.76222 5.74276 1.80271C4.80355 1.84624 4.29361 2.00417 3.95405 2.1378C3.50452 2.31435 3.18342 2.52492 2.84627 2.86506C2.50911 3.20521 2.3 3.52916 2.1254 3.98269C1.99355 4.32527 1.83662 4.83953 1.79367 5.78709C1.74751 6.81158 1.73828 7.11771 1.73828 9.71295C1.73828 12.3082 1.74751 12.6159 1.79367 13.6404C1.83642 14.588 1.99355 15.1022 2.1254 15.4444C2.3004 15.8981 2.50911 16.2213 2.84627 16.5614C3.18342 16.9016 3.50452 17.1122 3.95405 17.2883C4.29381 17.4213 4.80355 17.5796 5.74276 17.6234C6.75823 17.6699 7.06307 17.6801 9.63526 17.6801C12.2073 17.6801 12.5123 17.6699 13.5278 17.6234C14.467 17.5801 14.9771 17.4221 15.3163 17.2885C15.766 17.1124 16.0861 16.9018 16.4233 16.5616C16.7604 16.2217 16.9695 15.8988 17.1441 15.4452C17.276 15.1031 17.4329 14.5888 17.4759 13.6412C17.522 12.6167 17.532 12.309 17.532 9.71538C17.532 7.12176 17.522 6.81401 17.4759 5.78952C17.4331 4.84196 17.276 4.32769 17.1441 3.98552C16.9691 3.53199 16.7604 3.20805 16.4233 2.8679C16.0863 2.52775 15.7658 2.31719 15.3163 2.14104C14.9767 2.00802 14.467 1.84969 13.5278 1.80636C12.5121 1.75979 12.2073 1.75048 9.63526 1.75048C9.5241 1.75048 9.41716 1.75043 9.3142 1.75038Z" fill="#202020"/>
  <path fill-rule="evenodd" clip-rule="evenodd" d="M9.87431 4.86664C10.2569 4.39842 10.9135 4.03885 11.4752 4C11.5694 4.6401 11.3093 5.26703 10.9655 5.71022C10.598 6.18635 9.96387 6.55447 9.35012 6.53537C9.23816 5.92227 9.52529 5.29139 9.87431 4.86664ZM11.6819 6.46621C12.3978 6.46621 13.1558 6.8587 13.6951 7.53502C11.9269 8.51031 12.2134 11.051 14 11.7312C13.7544 12.2791 13.6365 12.5234 13.3197 13.0088C12.8779 13.6858 12.2555 14.5294 11.4831 14.5353C11.1655 14.5386 10.9572 14.4425 10.7326 14.3389C10.4723 14.2188 10.19 14.0886 9.69052 14.0914C9.19375 14.0939 8.90701 14.2225 8.64312 14.3408C8.4127 14.4442 8.19971 14.5397 7.87954 14.5366C7.10773 14.53 6.51768 13.7687 6.07581 13.0918C4.84105 11.1998 4.71065 8.97854 5.47258 7.79712C6.01456 6.95814 6.86934 6.46753 7.6721 6.46753C8.09995 6.46753 8.44477 6.59116 8.77337 6.70898C9.07244 6.81621 9.35808 6.91863 9.68065 6.91863C9.97912 6.91863 10.2245 6.82513 10.4922 6.72314C10.8133 6.60079 11.1665 6.46621 11.6819 6.46621Z" fill="black"/>
</svg>
