<svg width="20" height="20" viewBox="0 0 20 20" fill="none" xmlns="http://www.w3.org/2000/svg">
  <path fill-rule="evenodd" clip-rule="evenodd" d="M9.63372 0C7.01758 0 6.68926 0.0115407 5.66175 0.0587158C4.63624 0.106093 3.93625 0.26989 3.32376 0.51022C2.69019 0.758446 2.15276 1.09049 1.61733 1.63088C1.0815 2.17107 0.752371 2.71328 0.505527 3.35227C0.266711 3.9704 0.104156 4.67682 0.0579982 5.71102C0.0120411 6.74766 0 7.0791 0 9.71848C0 12.3579 0.0116398 12.6881 0.0581989 13.7247C0.10536 14.7593 0.267715 15.4655 0.505728 16.0835C0.751969 16.7227 1.08109 17.2649 1.61672 17.8051C2.15195 18.3457 2.68939 18.6785 3.32255 18.9267C3.93545 19.1671 4.63564 19.3309 5.66094 19.3782C6.68845 19.4254 7.01657 19.437 9.63251 19.437C12.2489 19.437 12.5762 19.4254 13.6037 19.3782C14.6292 19.3309 15.33 19.1671 15.9429 18.9267C16.5762 18.6785 17.1129 18.3457 17.6481 17.8051C18.1839 17.2649 18.5131 16.7227 18.7599 16.0837C18.9967 15.4655 19.1593 14.7591 19.2074 13.7249C19.2536 12.6883 19.2656 12.3579 19.2656 9.71848C19.2656 7.0791 19.2536 6.74786 19.2074 5.71123C19.1593 4.67661 18.9967 3.9704 18.7599 3.35247C18.5131 2.71328 18.1839 2.17107 17.6481 1.63088C17.1123 1.09029 16.5764 0.758244 15.9423 0.51022C15.3282 0.26989 14.6278 0.106093 13.6023 0.0587158C12.5748 0.0115407 12.2476 0 9.63071 0H9.63372ZM8.77019 1.75072C9.02667 1.75031 9.31285 1.75072 9.63435 1.75072C12.2063 1.75072 12.5112 1.76003 13.5268 1.8066C14.4661 1.84993 14.9758 2.00826 15.3154 2.14128C15.7649 2.31743 16.0854 2.52799 16.4223 2.86814C16.7595 3.20829 16.9682 3.53224 17.1432 3.98577C17.2751 4.32794 17.4322 4.84221 17.4749 5.78976C17.5211 6.81425 17.5311 7.122 17.5311 9.71562C17.5311 12.3092 17.5211 12.617 17.4749 13.6415C17.432 14.589 17.2751 15.1033 17.1432 15.4455C16.9686 15.899 16.7595 16.2219 16.4223 16.5619C16.0852 16.902 15.7651 17.1126 15.3154 17.2887C14.9762 17.4224 14.4661 17.5803 13.5268 17.6236C12.5114 17.6702 12.2063 17.6803 9.63435 17.6803C7.06216 17.6803 6.75732 17.6702 5.74185 17.6236C4.80264 17.5799 4.2929 17.4216 3.95313 17.2885C3.5036 17.1124 3.1825 16.9018 2.84535 16.5617C2.5082 16.2215 2.29948 15.8984 2.12449 15.4447C1.99264 15.1025 1.8355 14.5882 1.79275 13.6407C1.7466 12.6162 1.73736 12.3084 1.73736 9.71319C1.73736 7.11795 1.7466 6.81182 1.79275 5.78733C1.8357 4.83978 1.99264 4.32551 2.12449 3.98293C2.29908 3.5294 2.5082 3.20545 2.84535 2.86531C3.1825 2.52516 3.5036 2.31459 3.95313 2.13804C4.29269 2.00441 4.80264 1.84649 5.74185 1.80296C6.63048 1.76246 6.97486 1.75031 8.77019 1.74829V1.75072ZM14.7726 3.36479C14.1345 3.36479 13.6167 3.88656 13.6167 4.53061C13.6167 5.17446 14.1345 5.69682 14.7726 5.69682C15.4108 5.69682 15.9286 5.17446 15.9286 4.53061C15.9286 3.88676 15.4108 3.36439 14.7726 3.36439V3.36479ZM9.62985 4.72694C6.89791 4.72694 4.68294 6.96158 4.68294 9.71778C4.68294 12.474 6.89791 14.7076 9.62985 14.7076C12.3618 14.7076 14.5759 12.474 14.5759 9.71778C14.5759 6.96158 12.3616 4.72694 9.62965 4.72694H9.62985ZM9.63128 6.47753C11.4045 6.47753 12.8422 7.92781 12.8422 9.71703C12.8422 11.506 11.4045 12.9565 9.63128 12.9565C7.85782 12.9565 6.42031 11.506 6.42031 9.71703C6.42031 7.92781 7.85782 6.47753 9.63128 6.47753Z" fill="#202020"/>
</svg>
