<svg width="240" height="240" viewBox="0 0 240 240" fill="none" xmlns="http://www.w3.org/2000/svg">
  <mask id="mask0" mask-type="alpha" maskUnits="userSpaceOnUse" x="0" y="0" width="240" height="240">
    <rect width="240" height="240" fill="#013B42"/>
  </mask>
  <g mask="url(#mask0)">
    <rect width="240" height="248.205" fill="#013B42"/>
    <path d="M421.076 802.806C513.464 747.895 523.018 647.203 525.488 552.509C527.959 457.814 635.179 434.022 712.581 434.887C807.251 435.925 883.413 354.636 858.475 261.631C838.469 187.098 752.87 120.66 649.319 160.957C549.883 199.517 453.488 215.607 373.532 174.036C293.506 132.41 211.998 83.7813 125.073 137.151C57.8408 178.44 55.8116 256.294 113.816 310.008C172.538 364.393 165.335 409.427 134.376 461.941C103.417 514.455 75.9433 555.116 76.0514 610.33C76.2296 665.598 93.2961 717.175 155.169 775.443C217.042 833.712 328.687 857.718 421.076 802.806Z" fill="#F77211"/>
    <path d="M101.557 -16.0988C64.0707 -52.495 4.17749 -51.6115 -32.2186 -14.1256C-68.6148 23.3604 -67.7313 83.2536 -30.2454 119.65C7.24055 156.046 67.1338 155.162 103.53 117.676C139.926 80.1906 139.043 20.2973 101.557 -16.0988Z" fill="#D13B09"/>
  </g>
</svg>
