<svg width="240" height="240" viewBox="0 0 240 240" fill="none" xmlns="http://www.w3.org/2000/svg">
  <mask id="mask0" mask-type="alpha" maskUnits="userSpaceOnUse" x="0" y="0" width="240" height="240">
    <rect width="240" height="240" fill="#013B42"/>
  </mask>
  <g mask="url(#mask0)">
    <rect width="240" height="240" fill="#013B42"/>
    <path d="M421.076 541.058C513.464 486.147 523.018 385.455 525.488 290.76C527.959 196.066 635.179 172.273 712.581 173.138C807.251 174.176 883.413 92.8874 858.475 -0.117421C838.469 -74.6507 752.87 -141.089 649.319 -100.792C549.883 -62.2312 453.488 -46.1416 373.532 -87.7126C293.506 -129.339 211.998 -177.967 125.073 -124.598C57.8408 -83.3087 55.8116 -5.45427 113.816 48.2593C172.538 102.645 165.335 147.679 134.376 200.193C103.417 252.706 75.9433 293.368 76.0514 348.581C76.2296 403.85 93.2961 455.426 155.169 513.695C217.042 571.963 328.687 595.969 421.076 541.058Z" fill="#F77211"/>
  </g>
</svg>
