<svg width="240" height="240" viewBox="0 0 240 240" fill="none" xmlns="http://www.w3.org/2000/svg">
  <mask id="mask0" mask-type="alpha" maskUnits="userSpaceOnUse" x="0" y="0" width="240" height="240">
    <rect width="240" height="240" fill="#013B42"/>
  </mask>
  <g mask="url(#mask0)">
    <rect width="240" height="240" fill="#013B42"/>
    <path d="M217.694 361.3C198.692 321.517 157.911 313.875 119.317 309.348C80.7227 304.822 74.9847 260.136 78.2126 228.546C82.1526 189.909 51.7718 155.775 12.85 162.509C-18.3424 167.914 -48.6638 200.417 -36.0467 244.218C-23.9863 286.273 -20.9931 326.251 -40.9457 357.372C-60.9234 388.519 -83.8169 420.012 -65.242 457.506C-50.8708 486.506 -19.1399 490.227 4.9581 468.525C29.3573 446.555 47.4877 451.17 67.7917 465.768C88.0956 480.366 103.687 493.1 126.247 495.106C148.833 497.086 170.538 492.029 196.64 468.916C222.743 445.803 236.696 401.083 217.694 361.3Z" fill="#F77211"/>
  </g>
</svg>
