<svg width="240" height="240" viewBox="0 0 240 240" fill="none" xmlns="http://www.w3.org/2000/svg">
  <mask id="mask0" mask-type="alpha" maskUnits="userSpaceOnUse" x="0" y="0" width="240" height="240">
    <rect width="240" height="240" fill="#013B42"/>
  </mask>
  <g mask="url(#mask0)">
    <rect x="0.21875" width="247" height="242" fill="#013B42"/>
    <path d="M159.076 803.806C251.464 748.895 261.018 648.203 263.488 553.509C265.959 458.814 373.179 435.022 450.581 435.887C545.251 436.925 621.413 355.636 596.475 262.631C576.469 188.098 490.87 121.66 387.319 161.957C287.883 200.517 191.488 216.607 111.532 175.036C31.5063 133.41 -50.0016 84.7813 -136.927 138.151C-204.159 179.44 -206.188 257.294 -148.184 311.008C-89.4624 365.393 -96.6647 410.427 -127.624 462.941C-158.583 515.455 -186.057 556.116 -185.949 611.33C-185.77 666.598 -168.704 718.175 -106.831 776.443C-44.9583 834.712 66.6873 858.718 159.076 803.806Z" fill="#F77211"/>
  </g>
</svg>
