<svg width="240" height="240" viewBox="0 0 240 240" fill="none" xmlns="http://www.w3.org/2000/svg">
  <mask id="mask0" mask-type="alpha" maskUnits="userSpaceOnUse" x="0" y="0" width="240" height="240">
    <rect width="240" height="240" fill="#013B42"/>
  </mask>
  <g mask="url(#mask0)">
    <rect width="240" height="240" fill="#013B42"/>
    <path d="M421.076 278.807C513.464 223.895 523.018 123.204 525.488 28.5091C527.959 -66.1856 635.179 -89.978 712.581 -89.113C807.251 -88.0749 883.413 -169.364 858.475 -262.369C838.469 -336.902 752.87 -403.34 649.319 -363.043C549.883 -324.482 453.488 -308.393 373.532 -349.964C293.506 -391.59 211.998 -440.219 125.073 -386.849C57.8408 -345.56 55.8116 -267.705 113.816 -213.992C172.538 -159.606 165.335 -114.573 134.376 -62.0587C103.417 -9.54481 75.9433 31.1165 76.0514 86.33C76.2296 141.599 93.2961 193.175 155.169 251.443C217.042 309.712 328.687 333.718 421.076 278.807Z" fill="#F77211"/>
  </g>
</svg>
