<svg width="1486" height="574" viewBox="0 0 1486 574" fill="none" xmlns="http://www.w3.org/2000/svg">
  <rect width="1486" height="574" fill="#013B42"/>
  <path transform="translate(0, 300)" d="M1308.23 -18.2704C1255.68 85.2392 1095.15 167.826 997.16 132.862C899.172 97.8994 860.18 181.655 871.414 229.179C891.55 314.651 1014.87 415.68 1227.44 410.795C1505.44 404.293 1662.59 236.549 1721.63 87.0587C1768.19 -30.8807 1730.49 -200.987 1590.61 -233.976C1428.11 -272.388 1342.39 -85.2994 1308.23 -18.2704Z" fill="#F49A81"/>
  <path  transform="translate(0, 300)" d="M1245.24 231.37C1218.57 224.222 1191.15 240.052 1184 266.725C1176.86 293.398 1192.69 320.815 1219.36 327.962C1246.03 335.109 1273.45 319.28 1280.6 292.607C1287.74 265.933 1271.92 238.517 1245.24 231.37Z" fill="#D13B09"/>
</svg>
