<svg width="1484" height="441" viewBox="0 0 1484 441" fill="none" xmlns="http://www.w3.org/2000/svg">
  <mask id="mask0" mask-type="alpha" maskUnits="userSpaceOnUse" x="0" y="0" width="1486" height="441">
    <rect width="1486" height="441" fill="#013B42"/>
  </mask>
  <g mask="url(#mask0)">
    <path d="M0 0H1486V441H0V0Z" fill="#D13B09"/>
    <path d="M1294.23 289.73C1241.68 393.239 1081.15 475.826 983.16 440.863C885.172 405.9 846.18 489.656 857.414 537.179C877.55 622.651 1000.87 723.68 1213.44 718.795C1491.44 712.293 1648.59 544.549 1707.63 395.059C1754.19 277.119 1716.49 107.014 1576.61 74.0244C1414.11 35.6122 1328.39 222.701 1294.23 289.73Z" fill="#013B42"/>
    <path d="M1378 424.66C1335.57 413.29 1291.96 438.471 1280.59 480.902C1269.22 523.333 1294.4 566.947 1336.83 578.316C1379.26 589.686 1422.87 564.505 1434.24 522.074C1445.61 479.643 1420.43 436.029 1378 424.66Z" fill="#F77211"/>
  </g>
</svg>
