<svg width="333" height="230" viewBox="0 0 333 230" fill="none" xmlns="http://www.w3.org/2000/svg">
  <mask id="mask0" mask-type="alpha" maskUnits="userSpaceOnUse" x="0" y="0" width="333" height="230">
    <rect width="333" height="230" fill="white"/>
  </mask>
  <g mask="url(#mask0)">
    <rect width="333" height="230" fill="#013B42"/>
    <path d="M357.495 324.605C393.852 294.887 467.403 289.769 498.59 317.951C529.778 346.132 557.871 321.533 561.282 302.346C567.443 267.848 537.351 211.47 456.728 179.937C351.276 138.741 265.322 175.615 219.143 221.174C182.72 257.123 169.567 325.408 216.805 359.433C271.666 398.992 333.902 343.828 357.495 324.605Z" fill="#F77211"/>
    <path d="M260.594 -29.2253C231.254 -36.9011 201.095 -19.9011 193.233 8.74516C185.371 37.3914 202.783 66.8362 232.124 74.512C261.465 82.1877 291.623 65.1878 299.485 36.5415C307.347 7.89523 289.935 -21.5496 260.594 -29.2253Z" fill="#F49A81"/>
  </g>
</svg>
