<svg width="57" height="24" viewBox="0 0 57 24" fill="none" xmlns="http://www.w3.org/2000/svg">
<g opacity="0.5">
<g clip-path="url(#clip0)">
<path d="M23.2033 12.7603L20.4293 20.2646L20.1373 18.7462C19.4365 16.8774 17.9473 14.9211 16.1953 14.1327L18.7357 23.7686H21.7433L26.2109 12.7895H23.2033V12.7603Z" fill="white"/>
<path d="M25.5703 23.7686L27.3515 12.7603H30.1839L28.4319 23.7686H25.5703Z" fill="white"/>
<path d="M38.7373 13.0231C38.1825 12.7895 37.2773 12.5559 36.1969 12.5559C33.3937 12.5559 31.4081 14.0451 31.4081 16.1767C31.3789 17.7535 32.8097 18.6295 33.8901 19.1551C34.9997 19.6807 35.3793 20.0311 35.3793 20.5275C35.3793 21.2575 34.5033 21.6079 33.6857 21.6079C32.5469 21.6079 31.9337 21.4327 30.9993 21.0239L30.6197 20.8487L30.2109 23.3015C30.8825 23.5935 32.1089 23.8855 33.3645 23.8855C36.3429 23.8855 38.2993 22.3963 38.2993 20.1187C38.2993 18.8631 37.5401 17.8995 35.9049 17.1403C34.9121 16.6439 34.2989 16.2935 34.2989 15.7679C34.2989 15.3007 34.8245 14.8335 35.9341 14.8335C36.8685 14.8043 37.5401 15.0379 38.0657 15.2423L38.3285 15.3591L38.7373 13.0231Z" fill="white"/>
<path d="M46.009 12.7603H43.819C43.1474 12.7603 42.6218 12.9647 42.3298 13.6655L38.125 23.7394H41.1034C41.1034 23.7394 41.5998 22.3962 41.6874 22.075C42.0086 22.075 44.8994 22.075 45.3374 22.075C45.425 22.4546 45.6878 23.7102 45.6878 23.7102H48.3158L46.009 12.7603ZM42.505 19.8558C42.7386 19.2134 43.6438 16.7898 43.6438 16.7898C43.6146 16.819 43.8774 16.1474 44.0234 15.7386L44.1986 16.673C44.1986 16.673 44.7534 19.301 44.8702 19.8558C44.4322 19.8558 43.0598 19.8558 42.505 19.8558Z" fill="white"/>
<path d="M17.8323 12.7603H13.2479L13.2188 12.9355C16.7811 13.8699 19.1463 16.1182 20.1099 18.7462L19.1171 13.6947C18.9419 12.9939 18.4455 12.7895 17.8323 12.7603Z" fill="white"/>
<path d="M4.66279 10.1031H2.8524L0.75 0.671541L2.7648 0.350342L4.19559 7.70873L7.81639 0.437942H9.74358L4.66279 10.1031Z" fill="white"/>
<path d="M14.0638 7.03725H9.74224C9.62544 8.35125 10.2386 8.90605 11.2606 8.90605C12.1366 8.90605 12.8958 8.58485 13.7134 8.05925V9.37325C12.925 9.86965 11.9906 10.1908 10.9102 10.1908C9.04144 10.1908 7.78584 9.11045 8.16544 6.68685C8.51584 4.49686 10.005 3.18286 11.7862 3.18286C13.801 3.18286 14.4726 4.70126 14.1806 6.59926C14.1222 6.77445 14.093 6.92045 14.0638 7.03725ZM11.5234 4.35086C10.8518 4.35086 10.2386 4.87646 9.94664 5.98606H12.633C12.6622 4.93486 12.341 4.35086 11.5234 4.35086Z" fill="white"/>
<path d="M16.8968 6.19036L16.3128 10.0448H14.6484L15.6704 3.29956H17.1012V4.64276C17.656 3.85436 18.4444 3.21196 19.4956 3.15356V4.81796C18.4152 4.93476 17.4808 5.48956 16.8968 6.19036Z" fill="white"/>
<path d="M19.4688 10.074L20.4907 3.32879H22.1551L21.1331 10.074H19.4688ZM21.5127 2.18999C20.9579 2.18999 20.5783 1.81039 20.6659 1.25559C20.7535 0.671592 21.2499 0.291992 21.8339 0.291992C22.3595 0.291992 22.7391 0.671592 22.6515 1.25559C22.5639 1.81039 22.0675 2.18999 21.5127 2.18999Z" fill="white"/>
<path d="M26.7973 1.4891C26.2133 1.4891 25.8921 1.7519 25.7753 2.3359L25.6293 3.32869H26.9141V4.70109H25.4249L24.6073 10.0739H22.9429L23.7605 4.70109H22.7969L23.0013 3.32869H23.9649L24.1401 2.1607C24.3737 0.671498 25.3957 0.116699 26.7973 0.116699C27.0893 0.116699 27.3229 0.145899 27.4689 0.175099V1.5475C27.3229 1.5183 27.0893 1.4891 26.7973 1.4891Z" fill="white"/>
<path d="M26.8242 10.074L27.8462 3.32879H29.5106L28.4886 10.074H26.8242ZM28.8682 2.18999C28.3134 2.18999 27.9338 1.81039 28.0214 1.25559C28.109 0.671592 28.6054 0.291992 29.1894 0.291992C29.7442 0.291992 30.1238 0.700792 30.0362 1.25559C29.9194 1.81039 29.423 2.18999 28.8682 2.18999Z" fill="white"/>
<path d="M36.0248 7.03725H31.7032C31.5864 8.35125 32.1996 8.90605 33.2216 8.90605C34.0976 8.90605 34.8568 8.58485 35.6744 8.05925V9.37325C34.886 9.86965 33.9516 10.1908 32.8712 10.1908C31.0024 10.1908 29.7468 9.11045 30.1264 6.68685C30.4768 4.49686 31.966 3.18286 33.7472 3.18286C35.762 3.18286 36.4336 4.70126 36.1416 6.59926C36.0832 6.77445 36.0248 6.92045 36.0248 7.03725ZM33.4844 4.35086C32.8128 4.35086 32.1996 4.87646 31.9076 5.98606H34.594C34.6232 4.93486 34.2728 4.35086 33.4844 4.35086Z" fill="white"/>
<path d="M40.9586 10.074V9.13958C40.4038 9.72358 39.6738 10.22 38.7395 10.22C37.3379 10.22 36.3743 9.16878 36.7247 6.89119C37.1043 4.37999 38.6518 3.27039 40.2286 3.27039C40.871 3.27039 41.3674 3.38719 41.747 3.53319L42.2434 0.291999L43.9662 0L42.4186 10.074H40.9586ZM41.5426 4.90559C41.163 4.70119 40.8418 4.61359 40.287 4.61359C39.411 4.61359 38.6518 5.31439 38.4182 6.80359C38.2139 8.11759 38.681 8.73078 39.411 8.73078C40.0242 8.73078 40.5498 8.38038 41.0754 7.79639L41.5426 4.90559Z" fill="white"/>
<path d="M47.5284 10.1324C46.74 10.1324 46.0976 10.0156 45.4844 9.78197L46.594 2.62798L47.8788 2.42358L47.4116 5.54798C47.7912 5.19758 48.3168 4.87638 48.9592 4.87638C50.0396 4.87638 50.7696 5.66478 50.5068 7.38757C50.2148 9.25637 49.0468 10.1324 47.5284 10.1324ZM48.4628 5.98598C48.054 5.98598 47.616 6.27798 47.2364 6.65758L46.886 8.96437C47.1488 9.05197 47.2948 9.11037 47.6744 9.11037C48.4628 9.11037 49.0468 8.61397 49.222 7.47517C49.368 6.45318 49.0468 5.98598 48.4628 5.98598Z" fill="white"/>
<path d="M53.4831 10.3369C52.8407 11.5925 52.1983 11.9721 51.2055 11.9721C50.9719 11.9721 50.8551 11.9429 50.7383 11.9137V10.8625C50.9135 10.8917 51.0887 10.9501 51.3223 10.9501C51.7019 10.9501 52.0231 10.7749 52.2275 10.4245L52.4027 10.0741L51.3223 5.05166L52.6655 4.87646L53.2787 8.49726L54.9723 4.93486H56.2279L53.4831 10.3369Z" fill="white"/>
</g>
</g>
<defs>
<clipPath id="clip0">
<rect width="55.4799" height="23.9148" fill="white" transform="translate(0.75)"/>
</clipPath>
</defs>
</svg>
