<svg width="20" height="20" viewBox="0 0 20 20" fill="none" xmlns="http://www.w3.org/2000/svg">
<path fill-rule="evenodd" clip-rule="evenodd" d="M5.66175 0.0587158C6.68926 0.0115407 7.01758 0 9.63372 0H9.63071C12.2476 0 12.5748 0.0115407 13.6023 0.0587158C14.6278 0.106093 15.3282 0.26989 15.9423 0.51022C16.5764 0.758244 17.1123 1.09029 17.6481 1.63088C18.1839 2.17107 18.5131 2.71328 18.7599 3.35247C18.9967 3.9704 19.1593 4.67661 19.2074 5.71123C19.2536 6.74786 19.2656 7.0791 19.2656 9.71848C19.2656 12.3579 19.2536 12.6883 19.2074 13.7249C19.1593 14.7591 18.9967 15.4655 18.7599 16.0837C18.5131 16.7227 18.1839 17.2649 17.6481 17.8051C17.1129 18.3457 16.5762 18.6785 15.9429 18.9267C15.33 19.1671 14.6292 19.3309 13.6037 19.3782C12.5762 19.4254 12.2489 19.437 9.63251 19.437C7.01657 19.437 6.68845 19.4254 5.66094 19.3782C4.63564 19.3309 3.93545 19.1671 3.32255 18.9267C2.68939 18.6785 2.15195 18.3457 1.61672 17.8051C1.08109 17.2649 0.751969 16.7227 0.505728 16.0835C0.267715 15.4655 0.10536 14.7593 0.0581989 13.7247C0.0116398 12.6881 0 12.3579 0 9.71848C0 7.0791 0.0120411 6.74766 0.0579982 5.71102C0.104156 4.67682 0.266711 3.9704 0.505527 3.35227C0.752371 2.71328 1.0815 2.17107 1.61733 1.63088C2.15276 1.09049 2.69019 0.758446 3.32376 0.51022C3.93625 0.26989 4.63624 0.106093 5.66175 0.0587158ZM9.3142 1.75038C9.11941 1.75029 8.9389 1.75021 8.77111 1.75048V1.74805C6.97578 1.75007 6.6314 1.76222 5.74276 1.80271C4.80355 1.84624 4.29361 2.00417 3.95405 2.1378C3.50452 2.31435 3.18342 2.52492 2.84627 2.86506C2.50911 3.20521 2.3 3.52916 2.1254 3.98269C1.99355 4.32527 1.83662 4.83953 1.79367 5.78709C1.74751 6.81158 1.73828 7.11771 1.73828 9.71295C1.73828 12.3082 1.74751 12.6159 1.79367 13.6404C1.83642 14.588 1.99355 15.1022 2.1254 15.4444C2.3004 15.8981 2.50911 16.2213 2.84627 16.5614C3.18342 16.9016 3.50452 17.1122 3.95405 17.2883C4.29381 17.4213 4.80355 17.5796 5.74276 17.6234C6.75823 17.6699 7.06307 17.6801 9.63526 17.6801C12.2073 17.6801 12.5123 17.6699 13.5278 17.6234C14.467 17.5801 14.9771 17.4221 15.3163 17.2885C15.766 17.1124 16.0861 16.9018 16.4233 16.5616C16.7604 16.2217 16.9695 15.8988 17.1441 15.4452C17.276 15.1031 17.4329 14.5888 17.4759 13.6412C17.522 12.6167 17.532 12.309 17.532 9.71538C17.532 7.12176 17.522 6.81401 17.4759 5.78952C17.4331 4.84196 17.276 4.32769 17.1441 3.98552C16.9691 3.53199 16.7604 3.20805 16.4233 2.8679C16.0863 2.52775 15.7658 2.31719 15.3163 2.14104C14.9767 2.00802 14.467 1.84969 13.5278 1.80636C12.5121 1.75979 12.2073 1.75048 9.63526 1.75048C9.5241 1.75048 9.41716 1.75043 9.3142 1.75038Z" fill="#809DA0"/>
<path fill-rule="evenodd" clip-rule="evenodd" d="M10.1549 12.9749C10.1549 12.9749 10.3715 12.9538 10.4824 12.8494C10.5839 12.7537 10.5804 12.5732 10.5804 12.5732C10.5804 12.5732 10.5669 11.7301 11.0136 11.6056C11.4538 11.4832 12.019 12.4209 12.6188 12.7815C13.0719 13.0541 13.4158 12.9945 13.4158 12.9945L15.0187 12.9749C15.0187 12.9749 15.8568 12.9297 15.4595 12.352C15.4266 12.3047 15.2277 11.9245 14.268 11.1437C13.2626 10.3263 13.3976 10.4585 14.6079 9.04445C15.345 8.18336 15.6397 7.65765 15.5475 7.43286C15.4601 7.21785 14.9178 7.27494 14.9178 7.27494L13.1136 7.28472C13.1136 7.28472 12.9798 7.26877 12.8806 7.32072C12.7837 7.37165 12.7209 7.49047 12.7209 7.49047C12.7209 7.49047 12.4357 8.15661 12.0548 8.72347C11.2513 9.91892 10.9302 9.98219 10.7988 9.90812C10.493 9.73477 10.5693 9.21266 10.5693 8.84178C10.5693 7.68286 10.77 7.19984 10.179 7.07485C9.98294 7.03318 9.83855 7.00592 9.33674 7.00129C8.69289 6.99563 8.14822 7.00334 7.8395 7.13554C7.63408 7.2235 7.47561 7.42 7.57245 7.43132C7.6916 7.44521 7.96158 7.4951 8.10479 7.66588C8.28967 7.88656 8.28322 8.3814 8.28322 8.3814C8.28322 8.3814 8.38945 9.74557 8.03495 9.9148C7.79196 10.0311 7.45859 9.79392 6.74196 8.70907C6.37514 8.15353 6.09811 7.53934 6.09811 7.53934C6.09811 7.53934 6.0447 7.42463 5.94903 7.3629C5.83341 7.28832 5.67201 7.26517 5.67201 7.26517L3.95761 7.27494C3.95761 7.27494 3.69995 7.28112 3.60546 7.37937C3.52153 7.4663 3.599 7.64685 3.599 7.64685C3.599 7.64685 4.94129 10.3994 6.46141 11.7867C7.85535 13.0583 9.43769 12.9749 9.43769 12.9749H10.1549Z" fill="#809DA0"/>
</svg>
